<svg xmlns="http://www.w3.org/2000/svg" xmlns:xlink="http://www.w3.org/1999/xlink" width="500" zoomAndPan="magnify" viewBox="0 0 375 374.999991" height="500" preserveAspectRatio="xMidYMid meet" version="1.0"><defs><g/><clipPath id="92751705ed"><path d="M 230.875 133.921875 L 292.375 133.921875 L 292.375 219.421875 L 230.875 219.421875 Z M 230.875 133.921875 " clip-rule="nonzero"/></clipPath></defs><g fill="#ffffff" fill-opacity="1"><g transform="translate(65.805768, 195.100797)"><g><path d="M 36.796875 -57.046875 L 36.796875 -45.640625 L 17.15625 -45.640625 L 17.15625 -34.296875 L 35.96875 -34.296875 L 35.96875 -22.890625 L 17.15625 -22.890625 L 17.15625 -11.40625 L 36.796875 -11.40625 L 36.796875 0 L 4.15625 0 L 4.15625 -57.046875 Z M 36.796875 -57.046875 "/></g></g></g><g fill="#ffffff" fill-opacity="1"><g transform="translate(102.663626, 195.100797)"><g><path d="M 6.5625 -4.390625 C 3.25 -8.003906 1.59375 -12.441406 1.59375 -17.703125 C 1.59375 -22.960938 3.25 -27.410156 6.5625 -31.046875 C 9.882812 -34.691406 14.101562 -36.515625 19.21875 -36.515625 C 23.925781 -36.515625 27.800781 -35.039062 30.84375 -32.09375 L 30.84375 -35.484375 L 43.078125 -35.484375 L 43.078125 0 L 30.984375 0 L 30.984375 -4.015625 L 30.84375 -4.015625 C 27.800781 -0.648438 23.925781 1.03125 19.21875 1.03125 C 14.101562 1.03125 9.882812 -0.773438 6.5625 -4.390625 Z M 16.96875 -23.71875 C 15.382812 -22.15625 14.59375 -20.148438 14.59375 -17.703125 C 14.59375 -15.253906 15.351562 -13.257812 16.875 -11.71875 C 18.394531 -10.175781 20.398438 -9.40625 22.890625 -9.40625 C 25.285156 -9.40625 27.253906 -10.1875 28.796875 -11.75 C 30.347656 -13.320312 31.125 -15.304688 31.125 -17.703125 C 31.125 -20.148438 30.328125 -22.15625 28.734375 -23.71875 C 27.140625 -25.289062 25.191406 -26.078125 22.890625 -26.078125 C 20.535156 -26.078125 18.5625 -25.289062 16.96875 -23.71875 Z M 16.96875 -23.71875 "/></g></g></g><g fill="#ffffff" fill-opacity="1"><g transform="translate(146.644172, 195.100797)"><g><path d="M 19.578125 -36.515625 C 21.597656 -36.515625 23.597656 -36.28125 25.578125 -35.8125 C 27.566406 -35.351562 29.046875 -34.894531 30.015625 -34.4375 L 31.46875 -33.75 L 27.453125 -25.71875 C 24.691406 -27.195312 22.066406 -27.9375 19.578125 -27.9375 C 18.191406 -27.9375 17.207031 -27.785156 16.625 -27.484375 C 16.050781 -27.191406 15.765625 -26.628906 15.765625 -25.796875 C 15.765625 -25.609375 15.785156 -25.421875 15.828125 -25.234375 C 15.878906 -25.054688 15.972656 -24.882812 16.109375 -24.71875 C 16.253906 -24.5625 16.382812 -24.425781 16.5 -24.3125 C 16.613281 -24.195312 16.804688 -24.066406 17.078125 -23.921875 C 17.359375 -23.785156 17.578125 -23.679688 17.734375 -23.609375 C 17.898438 -23.546875 18.164062 -23.441406 18.53125 -23.296875 C 18.90625 -23.160156 19.179688 -23.054688 19.359375 -22.984375 C 19.546875 -22.921875 19.859375 -22.816406 20.296875 -22.671875 C 20.734375 -22.535156 21.066406 -22.445312 21.296875 -22.40625 C 22.722656 -21.988281 23.96875 -21.523438 25.03125 -21.015625 C 26.09375 -20.515625 27.210938 -19.828125 28.390625 -18.953125 C 29.566406 -18.078125 30.476562 -16.96875 31.125 -15.625 C 31.769531 -14.289062 32.09375 -12.769531 32.09375 -11.0625 C 32.09375 -3 26.488281 1.03125 15.28125 1.03125 C 12.75 1.03125 10.34375 0.640625 8.0625 -0.140625 C 5.78125 -0.921875 4.128906 -1.703125 3.109375 -2.484375 L 1.59375 -3.734375 L 6.5625 -12.109375 C 6.9375 -11.785156 7.421875 -11.398438 8.015625 -10.953125 C 8.617188 -10.515625 9.703125 -9.914062 11.265625 -9.15625 C 12.835938 -8.394531 14.203125 -8.015625 15.359375 -8.015625 C 17.890625 -8.015625 19.15625 -8.867188 19.15625 -10.578125 C 19.15625 -11.359375 18.832031 -11.96875 18.1875 -12.40625 C 17.539062 -12.851562 16.445312 -13.351562 14.90625 -13.90625 C 13.363281 -14.457031 12.148438 -14.960938 11.265625 -15.421875 C 9.054688 -16.578125 7.304688 -17.878906 6.015625 -19.328125 C 4.722656 -20.773438 4.078125 -22.703125 4.078125 -25.109375 C 4.078125 -28.703125 5.472656 -31.5 8.265625 -33.5 C 11.054688 -35.507812 14.828125 -36.515625 19.578125 -36.515625 Z M 19.578125 -36.515625 "/></g></g></g><g fill="#ffffff" fill-opacity="1"><g transform="translate(177.416624, 195.100797)"><g><path d="M 31.046875 -35.484375 L 45.15625 -35.484375 L 17.28125 17.984375 L 3.1875 17.984375 L 15.421875 -5.53125 L -1.390625 -35.484375 L 12.71875 -35.484375 L 22.609375 -17.28125 Z M 31.046875 -35.484375 "/></g></g></g><g fill="#ffffff" fill-opacity="1"><g transform="translate(108.435055, 257.488387)"><g><path d="M 4.15625 -57.046875 L 24.96875 -57.046875 C 30.769531 -57.046875 35.46875 -55.546875 39.0625 -52.546875 C 42.664062 -49.554688 44.46875 -45.203125 44.46875 -39.484375 C 44.46875 -33.765625 42.644531 -29.28125 39 -26.03125 C 35.363281 -22.78125 30.6875 -21.15625 24.96875 -21.15625 L 17.15625 -21.15625 L 17.15625 0 L 4.15625 0 Z M 17.15625 -31.53125 L 20.8125 -31.53125 C 23.71875 -31.53125 26.101562 -32.117188 27.96875 -33.296875 C 29.84375 -34.472656 30.78125 -36.398438 30.78125 -39.078125 C 30.78125 -41.796875 29.84375 -43.742188 27.96875 -44.921875 C 26.101562 -46.097656 23.71875 -46.6875 20.8125 -46.6875 L 17.15625 -46.6875 Z M 17.15625 -31.53125 "/></g></g></g><g fill="#ffffff" fill-opacity="1"><g transform="translate(150.548409, 257.488387)"><g><path d="M 4.15625 0 L 4.15625 -59.46875 L 16.390625 -59.46875 L 16.390625 0 Z M 4.15625 0 "/></g></g></g><g fill="#ffffff" fill-opacity="1"><g transform="translate(167.144552, 257.488387)"><g><path d="M 6.5625 -4.390625 C 3.25 -8.003906 1.59375 -12.441406 1.59375 -17.703125 C 1.59375 -22.960938 3.25 -27.410156 6.5625 -31.046875 C 9.882812 -34.691406 14.101562 -36.515625 19.21875 -36.515625 C 23.925781 -36.515625 27.800781 -35.039062 30.84375 -32.09375 L 30.84375 -35.484375 L 43.078125 -35.484375 L 43.078125 0 L 30.984375 0 L 30.984375 -4.015625 L 30.84375 -4.015625 C 27.800781 -0.648438 23.925781 1.03125 19.21875 1.03125 C 14.101562 1.03125 9.882812 -0.773438 6.5625 -4.390625 Z M 16.96875 -23.71875 C 15.382812 -22.15625 14.59375 -20.148438 14.59375 -17.703125 C 14.59375 -15.253906 15.351562 -13.257812 16.875 -11.71875 C 18.394531 -10.175781 20.398438 -9.40625 22.890625 -9.40625 C 25.285156 -9.40625 27.253906 -10.1875 28.796875 -11.75 C 30.347656 -13.320312 31.125 -15.304688 31.125 -17.703125 C 31.125 -20.148438 30.328125 -22.15625 28.734375 -23.71875 C 27.140625 -25.289062 25.191406 -26.078125 22.890625 -26.078125 C 20.535156 -26.078125 18.5625 -25.289062 16.96875 -23.71875 Z M 16.96875 -23.71875 "/></g></g></g><g fill="#ffffff" fill-opacity="1"><g transform="translate(210.433503, 257.488387)"><g><path d="M 23.03125 -26.484375 C 20.726562 -26.484375 18.742188 -25.628906 17.078125 -23.921875 C 15.421875 -22.222656 14.59375 -20.171875 14.59375 -17.765625 C 14.59375 -15.328125 15.421875 -13.253906 17.078125 -11.546875 C 18.742188 -9.835938 20.726562 -8.984375 23.03125 -8.984375 C 24.132812 -8.984375 25.179688 -9.117188 26.171875 -9.390625 C 27.160156 -9.671875 27.890625 -9.953125 28.359375 -10.234375 L 28.96875 -10.65625 L 33.125 -2.140625 C 32.800781 -1.910156 32.347656 -1.625 31.765625 -1.28125 C 31.191406 -0.9375 29.878906 -0.46875 27.828125 0.125 C 25.785156 0.726562 23.585938 1.03125 21.234375 1.03125 C 16.023438 1.03125 11.445312 -0.796875 7.5 -4.453125 C 3.5625 -8.117188 1.59375 -12.515625 1.59375 -17.640625 C 1.59375 -22.796875 3.5625 -27.226562 7.5 -30.9375 C 11.445312 -34.65625 16.023438 -36.515625 21.234375 -36.515625 C 23.585938 -36.515625 25.753906 -36.238281 27.734375 -35.6875 C 29.710938 -35.132812 31.117188 -34.582031 31.953125 -34.03125 L 33.125 -33.1875 L 28.96875 -24.828125 C 27.445312 -25.929688 25.46875 -26.484375 23.03125 -26.484375 Z M 23.03125 -26.484375 "/></g></g></g><g fill="#ffffff" fill-opacity="1"><g transform="translate(240.445197, 257.488387)"><g><path d="M 40.046875 -16.046875 L 14.3125 -16.046875 C 14.3125 -13.554688 15.117188 -11.710938 16.734375 -10.515625 C 18.347656 -9.316406 20.097656 -8.71875 21.984375 -8.71875 C 23.972656 -8.71875 25.539062 -8.976562 26.6875 -9.5 C 27.84375 -10.03125 29.160156 -11.082031 30.640625 -12.65625 L 39.484375 -8.234375 C 35.796875 -2.054688 29.664062 1.03125 21.09375 1.03125 C 15.75 1.03125 11.160156 -0.796875 7.328125 -4.453125 C 3.503906 -8.117188 1.59375 -12.535156 1.59375 -17.703125 C 1.59375 -22.867188 3.503906 -27.296875 7.328125 -30.984375 C 11.160156 -34.671875 15.75 -36.515625 21.09375 -36.515625 C 26.71875 -36.515625 31.289062 -34.890625 34.8125 -31.640625 C 38.34375 -28.390625 40.109375 -23.742188 40.109375 -17.703125 C 40.109375 -16.867188 40.085938 -16.316406 40.046875 -16.046875 Z M 14.65625 -22.828125 L 28.140625 -22.828125 C 27.867188 -24.671875 27.144531 -26.085938 25.96875 -27.078125 C 24.789062 -28.066406 23.28125 -28.5625 21.4375 -28.5625 C 19.40625 -28.5625 17.789062 -28.03125 16.59375 -26.96875 C 15.394531 -25.90625 14.75 -24.523438 14.65625 -22.828125 Z M 14.65625 -22.828125 "/></g></g></g><g clip-path="url(#92751705ed)"><path fill="#2c9097" d="M 290.042969 152.703125 C 289.542969 151.496094 288.96875 150.324219 288.316406 149.1875 C 287.667969 148.054688 286.945312 146.964844 286.15625 145.925781 C 285.367188 144.882812 284.511719 143.894531 283.59375 142.964844 C 282.679688 142.03125 281.707031 141.164062 280.675781 140.355469 C 279.648438 139.546875 278.570312 138.8125 277.445312 138.144531 C 276.324219 137.472656 275.160156 136.878906 273.960938 136.363281 C 272.761719 135.84375 271.53125 135.402344 270.273438 135.042969 C 269.015625 134.679688 267.742188 134.402344 266.449219 134.207031 C 264.851562 134 263.25 133.914062 261.640625 133.9375 C 260.027344 133.914062 258.425781 134.003906 256.828125 134.207031 C 255.535156 134.402344 254.257812 134.679688 253.003906 135.042969 C 251.746094 135.402344 250.515625 135.84375 249.316406 136.363281 C 248.117188 136.878906 246.953125 137.472656 245.832031 138.144531 C 244.707031 138.8125 243.628906 139.546875 242.601562 140.355469 C 241.570312 141.164062 240.597656 142.03125 239.679688 142.964844 C 238.765625 143.894531 237.910156 144.882812 237.121094 145.925781 C 236.328125 146.964844 235.609375 148.054688 234.960938 149.1875 C 234.308594 150.324219 233.734375 151.496094 233.234375 152.703125 C 231.648438 156.507812 230.859375 160.46875 230.855469 164.585938 L 230.855469 164.710938 C 230.855469 164.808594 230.855469 164.902344 230.859375 164.992188 C 230.863281 165.191406 230.867188 165.390625 230.875 165.585938 C 230.875 165.675781 230.878906 165.765625 230.886719 165.855469 C 230.886719 165.910156 230.886719 165.96875 230.894531 166.027344 C 230.90625 166.273438 230.917969 166.519531 230.9375 166.765625 C 231.199219 170.144531 231.894531 173.429688 233.027344 176.621094 C 234.15625 179.816406 235.683594 182.808594 237.609375 185.59375 C 242.554688 192.847656 261.640625 219.515625 261.640625 219.515625 C 261.640625 219.515625 280.722656 192.847656 285.667969 185.59375 C 287.589844 182.808594 289.121094 179.816406 290.25 176.621094 C 291.382812 173.429688 292.078125 170.144531 292.339844 166.765625 C 292.355469 166.519531 292.371094 166.273438 292.382812 166.027344 C 292.390625 165.96875 292.390625 165.910156 292.390625 165.855469 C 292.398438 165.765625 292.398438 165.675781 292.402344 165.585938 C 292.410156 165.390625 292.414062 165.191406 292.417969 164.992188 C 292.417969 164.902344 292.417969 164.808594 292.417969 164.710938 L 292.417969 164.585938 C 292.417969 160.46875 291.625 156.507812 290.042969 152.703125 Z M 258.316406 179.183594 C 256.054688 178.066406 254.042969 176.597656 252.289062 174.785156 C 250.53125 172.972656 249.128906 170.914062 248.082031 168.617188 C 247.113281 166.003906 246.578125 163.300781 246.476562 160.515625 C 246.375 157.726562 246.714844 154.992188 247.492188 152.316406 C 250.75 155.296875 253.492188 158.6875 255.722656 162.496094 C 257.167969 165.023438 258.109375 167.726562 258.558594 170.601562 C 259.003906 173.476562 258.921875 176.339844 258.316406 179.183594 Z M 274.941406 169.664062 C 274.050781 171.175781 272.949219 172.519531 271.644531 173.691406 C 270.339844 174.867188 268.890625 175.820312 267.296875 176.546875 C 264.964844 177.703125 262.539062 178.582031 260.007812 179.1875 C 263.089844 171.734375 267.671875 165.042969 271.6875 158.085938 C 271.453125 158.269531 271.253906 158.484375 271.09375 158.738281 C 267.820312 162.953125 264.6875 167.28125 261.441406 171.523438 C 261.222656 170.308594 261.136719 169.085938 261.179688 167.855469 C 261.226562 166.625 261.402344 165.410156 261.710938 164.21875 C 262.019531 163.027344 262.449219 161.878906 263.003906 160.777344 C 263.558594 159.679688 264.226562 158.652344 265.003906 157.695312 C 267.863281 154.277344 271.960938 152.324219 275.546875 149.804688 C 276.347656 153.550781 276.769531 157.339844 276.808594 161.171875 C 276.886719 164.15625 276.265625 166.988281 274.941406 169.664062 Z M 274.941406 169.664062 " fill-opacity="1" fill-rule="nonzero"/></g><g fill="#ffffff" fill-opacity="1"><g transform="translate(113.894836, 156.712168)"><g><path d="M 7.296875 0 L 0.734375 0 C 0.628906 0 0.578125 -0.046875 0.578125 -0.140625 L 0.578125 -0.75 C 0.578125 -0.851562 0.628906 -0.90625 0.734375 -0.90625 L 1.640625 -0.90625 L 1.640625 -7.71875 L 0.734375 -7.71875 C 0.628906 -7.71875 0.578125 -7.765625 0.578125 -7.859375 L 0.578125 -8.46875 C 0.578125 -8.5625 0.628906 -8.609375 0.734375 -8.609375 L 3.59375 -8.609375 C 3.695312 -8.609375 3.75 -8.554688 3.75 -8.453125 L 3.75 -7.875 C 3.75 -7.769531 3.695312 -7.71875 3.59375 -7.71875 L 2.6875 -7.71875 L 2.6875 -0.90625 L 6.5 -0.90625 L 6.5 -2.078125 C 6.5 -2.171875 6.550781 -2.21875 6.65625 -2.21875 L 7.3125 -2.21875 C 7.40625 -2.21875 7.453125 -2.171875 7.453125 -2.078125 L 7.453125 -0.15625 C 7.453125 -0.0507812 7.398438 0 7.296875 0 Z M 7.296875 0 "/></g></g></g><g fill="#ffffff" fill-opacity="1"><g transform="translate(122.390856, 156.712168)"><g><path d="M 8.921875 -4.34375 C 8.921875 -3.03125 8.523438 -1.960938 7.734375 -1.140625 C 6.953125 -0.328125 5.960938 0.078125 4.765625 0.078125 C 3.566406 0.078125 2.566406 -0.332031 1.765625 -1.15625 C 0.972656 -1.988281 0.578125 -3.054688 0.578125 -4.359375 C 0.578125 -5.671875 0.988281 -6.71875 1.8125 -7.5 C 2.632812 -8.289062 3.617188 -8.6875 4.765625 -8.6875 C 5.910156 -8.6875 6.890625 -8.289062 7.703125 -7.5 C 8.515625 -6.71875 8.921875 -5.664062 8.921875 -4.34375 Z M 2.625 -1.796875 C 3.238281 -1.191406 3.953125 -0.890625 4.765625 -0.890625 C 5.578125 -0.890625 6.285156 -1.191406 6.890625 -1.796875 C 7.503906 -2.410156 7.8125 -3.25 7.8125 -4.3125 C 7.8125 -5.382812 7.5 -6.222656 6.875 -6.828125 C 6.257812 -7.429688 5.554688 -7.734375 4.765625 -7.734375 C 3.972656 -7.734375 3.265625 -7.429688 2.640625 -6.828125 C 2.015625 -6.222656 1.703125 -5.382812 1.703125 -4.3125 C 1.703125 -3.25 2.007812 -2.410156 2.625 -1.796875 Z M 2.625 -1.796875 "/></g></g></g><g fill="#ffffff" fill-opacity="1"><g transform="translate(132.362878, 156.712168)"><g><path d="M 8.359375 -2.171875 C 8.398438 -2.140625 8.421875 -2.097656 8.421875 -2.046875 C 8.421875 -2.003906 8.398438 -1.945312 8.359375 -1.875 C 8.328125 -1.800781 8.269531 -1.703125 8.1875 -1.578125 C 8.101562 -1.453125 7.953125 -1.28125 7.734375 -1.0625 C 7.523438 -0.851562 7.289062 -0.671875 7.03125 -0.515625 C 6.769531 -0.359375 6.429688 -0.21875 6.015625 -0.09375 C 5.597656 0.0195312 5.148438 0.078125 4.671875 0.078125 C 3.503906 0.078125 2.53125 -0.328125 1.75 -1.140625 C 0.96875 -1.953125 0.578125 -3.019531 0.578125 -4.34375 C 0.578125 -5.675781 0.96875 -6.734375 1.75 -7.515625 C 2.539062 -8.296875 3.492188 -8.6875 4.609375 -8.6875 C 5.847656 -8.6875 6.75 -8.257812 7.3125 -7.40625 L 7.296875 -8.46875 C 7.273438 -8.5625 7.320312 -8.609375 7.4375 -8.609375 L 8.109375 -8.609375 C 8.210938 -8.609375 8.265625 -8.5625 8.265625 -8.46875 L 8.265625 -5.859375 C 8.265625 -5.753906 8.210938 -5.703125 8.109375 -5.703125 L 7.359375 -5.703125 C 7.265625 -5.703125 7.21875 -5.753906 7.21875 -5.859375 L 7.21875 -5.96875 C 7.21875 -6.332031 6.96875 -6.710938 6.46875 -7.109375 C 5.96875 -7.503906 5.34375 -7.703125 4.59375 -7.703125 C 3.851562 -7.703125 3.179688 -7.40625 2.578125 -6.8125 C 1.984375 -6.226562 1.6875 -5.398438 1.6875 -4.328125 C 1.6875 -3.253906 1.984375 -2.414062 2.578125 -1.8125 C 3.179688 -1.21875 3.890625 -0.921875 4.703125 -0.921875 C 5.578125 -0.921875 6.265625 -1.117188 6.765625 -1.515625 C 7.160156 -1.816406 7.445312 -2.125 7.625 -2.4375 C 7.695312 -2.550781 7.773438 -2.578125 7.859375 -2.515625 Z M 8.359375 -2.171875 "/></g></g></g><g fill="#ffffff" fill-opacity="1"><g transform="translate(141.842909, 156.712168)"><g><path d="M 9.21875 0 L 6.5 0 C 6.40625 0 6.359375 -0.046875 6.359375 -0.140625 L 6.359375 -0.75 C 6.359375 -0.851562 6.40625 -0.90625 6.5 -0.90625 L 7.34375 -0.90625 L 6.5625 -2.96875 L 3.21875 -2.96875 L 2.4375 -0.90625 L 3.28125 -0.90625 C 3.375 -0.90625 3.421875 -0.851562 3.421875 -0.75 L 3.421875 -0.140625 C 3.421875 -0.046875 3.375 0 3.28125 0 L 0.578125 0 C 0.484375 0 0.4375 -0.046875 0.4375 -0.140625 L 0.4375 -0.75 C 0.4375 -0.851562 0.484375 -0.90625 0.578125 -0.90625 L 1.375 -0.90625 L 3.953125 -7.71875 L 3.3125 -7.71875 C 3.207031 -7.71875 3.15625 -7.765625 3.15625 -7.859375 L 3.15625 -8.46875 C 3.15625 -8.5625 3.207031 -8.609375 3.3125 -8.609375 L 4.9375 -8.609375 C 5.132812 -8.609375 5.28125 -8.566406 5.375 -8.484375 C 5.476562 -8.410156 5.566406 -8.28125 5.640625 -8.09375 L 8.40625 -0.90625 L 9.21875 -0.90625 C 9.3125 -0.90625 9.359375 -0.851562 9.359375 -0.75 L 9.359375 -0.140625 C 9.359375 -0.046875 9.3125 0 9.21875 0 Z M 6.234375 -3.796875 L 4.90625 -7.375 L 4.875 -7.375 L 3.53125 -3.796875 Z M 6.234375 -3.796875 "/></g></g></g><g fill="#ffffff" fill-opacity="1"><g transform="translate(152.390933, 156.712168)"><g><path d="M 7.296875 0 L 0.734375 0 C 0.628906 0 0.578125 -0.046875 0.578125 -0.140625 L 0.578125 -0.75 C 0.578125 -0.851562 0.628906 -0.90625 0.734375 -0.90625 L 1.640625 -0.90625 L 1.640625 -7.71875 L 0.734375 -7.71875 C 0.628906 -7.71875 0.578125 -7.765625 0.578125 -7.859375 L 0.578125 -8.46875 C 0.578125 -8.5625 0.628906 -8.609375 0.734375 -8.609375 L 3.59375 -8.609375 C 3.695312 -8.609375 3.75 -8.554688 3.75 -8.453125 L 3.75 -7.875 C 3.75 -7.769531 3.695312 -7.71875 3.59375 -7.71875 L 2.6875 -7.71875 L 2.6875 -0.90625 L 6.5 -0.90625 L 6.5 -2.078125 C 6.5 -2.171875 6.550781 -2.21875 6.65625 -2.21875 L 7.3125 -2.21875 C 7.40625 -2.21875 7.453125 -2.171875 7.453125 -2.078125 L 7.453125 -0.15625 C 7.453125 -0.0507812 7.398438 0 7.296875 0 Z M 7.296875 0 "/></g></g></g><g fill="#ffffff" fill-opacity="1"><g transform="translate(160.886952, 156.712168)"><g/></g></g><g fill="#ffffff" fill-opacity="1"><g transform="translate(165.098967, 156.712168)"><g><path d="M 10.3125 0 L 7.53125 0 C 7.4375 0 7.390625 -0.046875 7.390625 -0.140625 L 7.390625 -0.75 C 7.390625 -0.851562 7.4375 -0.90625 7.53125 -0.90625 L 8.34375 -0.90625 L 8.34375 -6.875 L 8.328125 -6.875 L 6.046875 -1.21875 C 5.953125 -0.976562 5.773438 -0.859375 5.515625 -0.859375 C 5.265625 -0.859375 5.085938 -0.976562 4.984375 -1.21875 L 2.71875 -6.875 L 2.6875 -6.875 L 2.6875 -0.90625 L 3.484375 -0.90625 C 3.585938 -0.90625 3.640625 -0.851562 3.640625 -0.75 L 3.640625 -0.140625 C 3.640625 -0.046875 3.585938 0 3.484375 0 L 0.734375 0 C 0.628906 0 0.578125 -0.046875 0.578125 -0.140625 L 0.578125 -0.75 C 0.578125 -0.851562 0.628906 -0.90625 0.734375 -0.90625 L 1.640625 -0.90625 L 1.640625 -7.71875 L 0.734375 -7.71875 C 0.628906 -7.71875 0.578125 -7.765625 0.578125 -7.859375 L 0.578125 -8.46875 C 0.578125 -8.5625 0.628906 -8.609375 0.734375 -8.609375 L 2.578125 -8.609375 C 2.847656 -8.609375 3.035156 -8.472656 3.140625 -8.203125 L 4.9375 -3.890625 L 5.5 -2.375 L 5.546875 -2.375 C 5.765625 -3 5.945312 -3.492188 6.09375 -3.859375 L 7.890625 -8.203125 C 7.992188 -8.472656 8.1875 -8.609375 8.46875 -8.609375 L 10.3125 -8.609375 C 10.40625 -8.609375 10.453125 -8.5625 10.453125 -8.46875 L 10.453125 -7.859375 C 10.453125 -7.765625 10.40625 -7.71875 10.3125 -7.71875 L 9.390625 -7.71875 L 9.390625 -0.90625 L 10.3125 -0.90625 C 10.40625 -0.90625 10.453125 -0.851562 10.453125 -0.75 L 10.453125 -0.140625 C 10.453125 -0.046875 10.40625 0 10.3125 0 Z M 10.3125 0 "/></g></g></g><g fill="#ffffff" fill-opacity="1"><g transform="translate(176.582992, 156.712168)"><g><path d="M 9.21875 0 L 6.5 0 C 6.40625 0 6.359375 -0.046875 6.359375 -0.140625 L 6.359375 -0.75 C 6.359375 -0.851562 6.40625 -0.90625 6.5 -0.90625 L 7.34375 -0.90625 L 6.5625 -2.96875 L 3.21875 -2.96875 L 2.4375 -0.90625 L 3.28125 -0.90625 C 3.375 -0.90625 3.421875 -0.851562 3.421875 -0.75 L 3.421875 -0.140625 C 3.421875 -0.046875 3.375 0 3.28125 0 L 0.578125 0 C 0.484375 0 0.4375 -0.046875 0.4375 -0.140625 L 0.4375 -0.75 C 0.4375 -0.851562 0.484375 -0.90625 0.578125 -0.90625 L 1.375 -0.90625 L 3.953125 -7.71875 L 3.3125 -7.71875 C 3.207031 -7.71875 3.15625 -7.765625 3.15625 -7.859375 L 3.15625 -8.46875 C 3.15625 -8.5625 3.207031 -8.609375 3.3125 -8.609375 L 4.9375 -8.609375 C 5.132812 -8.609375 5.28125 -8.566406 5.375 -8.484375 C 5.476562 -8.410156 5.566406 -8.28125 5.640625 -8.09375 L 8.40625 -0.90625 L 9.21875 -0.90625 C 9.3125 -0.90625 9.359375 -0.851562 9.359375 -0.75 L 9.359375 -0.140625 C 9.359375 -0.046875 9.3125 0 9.21875 0 Z M 6.234375 -3.796875 L 4.90625 -7.375 L 4.875 -7.375 L 3.53125 -3.796875 Z M 6.234375 -3.796875 "/></g></g></g><g fill="#ffffff" fill-opacity="1"><g transform="translate(187.131016, 156.712168)"><g><path d="M 7.859375 0 L 6.8125 0 C 6.53125 0 6.289062 -0.191406 6.09375 -0.578125 L 4.96875 -2.875 C 4.875 -3.070312 4.769531 -3.21875 4.65625 -3.3125 C 4.550781 -3.40625 4.40625 -3.457031 4.21875 -3.46875 L 2.6875 -3.46875 L 2.6875 -0.90625 L 3.765625 -0.90625 C 3.859375 -0.90625 3.90625 -0.851562 3.90625 -0.75 L 3.90625 -0.140625 C 3.90625 -0.046875 3.859375 0 3.765625 0 L 0.734375 0 C 0.628906 0 0.578125 -0.046875 0.578125 -0.140625 L 0.578125 -0.75 C 0.578125 -0.851562 0.628906 -0.90625 0.734375 -0.90625 L 1.640625 -0.90625 L 1.640625 -7.71875 L 0.734375 -7.71875 C 0.628906 -7.71875 0.578125 -7.765625 0.578125 -7.859375 L 0.578125 -8.46875 C 0.578125 -8.5625 0.628906 -8.609375 0.734375 -8.609375 L 4.421875 -8.609375 C 5.285156 -8.609375 5.984375 -8.382812 6.515625 -7.9375 C 7.046875 -7.488281 7.3125 -6.851562 7.3125 -6.03125 C 7.3125 -4.769531 6.726562 -3.984375 5.5625 -3.671875 C 5.707031 -3.546875 5.894531 -3.28125 6.125 -2.875 L 7.125 -0.90625 L 7.859375 -0.90625 C 7.953125 -0.90625 8 -0.851562 8 -0.75 L 8 -0.140625 C 8 -0.046875 7.953125 0 7.859375 0 Z M 2.6875 -4.3125 L 4.21875 -4.3125 C 5.582031 -4.3125 6.265625 -4.867188 6.265625 -5.984375 C 6.265625 -7.140625 5.582031 -7.71875 4.21875 -7.71875 L 2.6875 -7.71875 Z M 2.6875 -4.3125 "/></g></g></g><g fill="#ffffff" fill-opacity="1"><g transform="translate(196.167036, 156.712168)"><g><path d="M 8.421875 0 L 7.375 0 C 7.09375 0 6.851562 -0.191406 6.65625 -0.578125 L 5.53125 -2.875 C 5.46875 -3 5.410156 -3.097656 5.359375 -3.171875 C 5.304688 -3.242188 5.191406 -3.3125 5.015625 -3.375 C 4.847656 -3.445312 4.632812 -3.484375 4.375 -3.484375 L 2.6875 -3.484375 L 2.6875 -0.90625 L 3.796875 -0.90625 C 3.898438 -0.90625 3.953125 -0.851562 3.953125 -0.75 L 3.953125 -0.140625 C 3.953125 -0.046875 3.898438 0 3.796875 0 L 0.734375 0 C 0.628906 0 0.578125 -0.046875 0.578125 -0.140625 L 0.578125 -0.75 C 0.578125 -0.851562 0.628906 -0.90625 0.734375 -0.90625 L 1.640625 -0.90625 L 1.640625 -7.71875 L 0.734375 -7.71875 C 0.628906 -7.71875 0.578125 -7.765625 0.578125 -7.859375 L 0.578125 -8.46875 C 0.578125 -8.5625 0.628906 -8.609375 0.734375 -8.609375 L 3.421875 -8.609375 C 3.515625 -8.609375 3.5625 -8.5625 3.5625 -8.46875 L 3.5625 -7.859375 C 3.5625 -7.765625 3.515625 -7.71875 3.421875 -7.71875 L 2.6875 -7.71875 L 2.6875 -4.34375 L 3.953125 -4.34375 C 4.796875 -4.34375 5.421875 -4.59375 5.828125 -5.09375 C 6.242188 -5.59375 6.453125 -6.46875 6.453125 -7.71875 L 5.640625 -7.71875 C 5.546875 -7.71875 5.5 -7.765625 5.5 -7.859375 L 5.5 -8.46875 C 5.5 -8.5625 5.546875 -8.609375 5.640625 -8.609375 L 8.3125 -8.609375 C 8.40625 -8.609375 8.453125 -8.5625 8.453125 -8.46875 L 8.453125 -7.859375 C 8.453125 -7.765625 8.40625 -7.71875 8.3125 -7.71875 L 7.484375 -7.71875 C 7.484375 -5.789062 6.941406 -4.53125 5.859375 -3.9375 C 6.035156 -3.84375 6.175781 -3.726562 6.28125 -3.59375 C 6.382812 -3.457031 6.503906 -3.25 6.640625 -2.96875 L 7.6875 -0.90625 L 8.421875 -0.90625 C 8.515625 -0.90625 8.5625 -0.851562 8.5625 -0.75 L 8.5625 -0.140625 C 8.5625 -0.046875 8.515625 0 8.421875 0 Z M 8.421875 0 "/></g></g></g><g fill="#ffffff" fill-opacity="1"><g transform="translate(205.77906, 156.712168)"><g><path d="M 7.109375 0 L 0.734375 0 C 0.628906 0 0.578125 -0.046875 0.578125 -0.140625 L 0.578125 -0.75 C 0.578125 -0.851562 0.628906 -0.90625 0.734375 -0.90625 L 1.640625 -0.90625 L 1.640625 -7.71875 L 0.734375 -7.71875 C 0.628906 -7.71875 0.578125 -7.765625 0.578125 -7.859375 L 0.578125 -8.46875 C 0.578125 -8.5625 0.628906 -8.609375 0.734375 -8.609375 L 7.109375 -8.609375 C 7.210938 -8.609375 7.265625 -8.5625 7.265625 -8.46875 L 7.265625 -6.546875 C 7.265625 -6.441406 7.210938 -6.390625 7.109375 -6.390625 L 6.453125 -6.390625 C 6.359375 -6.390625 6.3125 -6.441406 6.3125 -6.546875 L 6.3125 -7.71875 L 2.6875 -7.71875 L 2.6875 -4.734375 L 5.71875 -4.734375 C 5.820312 -4.734375 5.875 -4.6875 5.875 -4.59375 L 5.875 -3.984375 C 5.875 -3.890625 5.820312 -3.84375 5.71875 -3.84375 L 2.6875 -3.84375 L 2.6875 -0.90625 L 6.296875 -0.90625 L 6.296875 -2.078125 C 6.296875 -2.171875 6.347656 -2.21875 6.453125 -2.21875 L 7.109375 -2.21875 C 7.210938 -2.21875 7.265625 -2.171875 7.265625 -2.078125 L 7.265625 -0.140625 C 7.265625 -0.046875 7.210938 0 7.109375 0 Z M 7.109375 0 "/></g></g></g><g fill="#ffffff" fill-opacity="1"><g transform="translate(214.071088, 156.712168)"><g><path d="M 5.734375 0 L 2.9375 0 C 2.832031 0 2.78125 -0.0507812 2.78125 -0.15625 L 2.78125 -0.75 C 2.78125 -0.851562 2.832031 -0.90625 2.9375 -0.90625 L 3.859375 -0.90625 L 3.859375 -7.71875 L 1.578125 -7.71875 L 1.578125 -6.4375 C 1.578125 -6.332031 1.523438 -6.28125 1.421875 -6.28125 L 0.75 -6.28125 C 0.632812 -6.28125 0.578125 -6.332031 0.578125 -6.4375 L 0.578125 -8.453125 C 0.578125 -8.554688 0.632812 -8.609375 0.75 -8.609375 L 7.984375 -8.609375 C 8.085938 -8.609375 8.140625 -8.554688 8.140625 -8.453125 L 8.140625 -6.4375 C 8.140625 -6.332031 8.085938 -6.28125 7.984375 -6.28125 L 7.296875 -6.28125 C 7.191406 -6.28125 7.140625 -6.332031 7.140625 -6.4375 L 7.140625 -7.71875 L 4.890625 -7.71875 L 4.890625 -0.90625 L 5.734375 -0.90625 C 5.847656 -0.90625 5.90625 -0.851562 5.90625 -0.75 L 5.90625 -0.15625 C 5.90625 -0.0507812 5.847656 0 5.734375 0 Z M 5.734375 0 "/></g></g></g></svg>