<svg xmlns="http://www.w3.org/2000/svg" xmlns:xlink="http://www.w3.org/1999/xlink" width="250" zoomAndPan="magnify" viewBox="0 0 375 374.999991" height="150" preserveAspectRatio="xMidYMid meet" version="1.0"><defs><g/><clipPath id="f61cf6c536"><path d="M 158 165 L 259.5 165 L 259.5 227 L 158 227 Z M 158 165 " clip-rule="nonzero"/></clipPath><clipPath id="75cce7c366"><path d="M 115.5 83.761719 L 249 83.761719 L 249 233.761719 L 115.5 233.761719 Z M 115.5 83.761719 " clip-rule="nonzero"/></clipPath></defs><g clip-path="url(#f61cf6c536)"><path fill="#22c55e" d="M 232.078125 201.554688 C 236.582031 193.679688 239.152344 184.5625 239.152344 174.84375 C 239.152344 171.632812 238.871094 168.484375 238.332031 165.429688 C 236.152344 177.554688 229.707031 188.199219 220.601562 195.746094 C 215.332031 200.117188 207.492188 199.230469 203.367188 193.765625 L 195.675781 183.570312 C 194.394531 181.875 192.394531 180.878906 190.269531 180.878906 L 160.953125 180.878906 C 160.945312 180.878906 160.9375 180.878906 160.933594 180.878906 C 158.929688 180.894531 157.636719 183.003906 158.535156 184.796875 L 159.703125 187.121094 C 161.871094 191.441406 166.140625 194.3125 170.960938 194.691406 L 172.699219 194.828125 L 180.300781 195.429688 C 182.453125 195.597656 184.394531 196.789062 185.519531 198.628906 L 188.96875 204.269531 L 190.898438 207.425781 L 201.714844 225.117188 C 201.90625 225.433594 202.148438 225.707031 202.421875 225.9375 C 203.214844 226.601562 204.289062 226.878906 205.328125 226.621094 C 205.335938 226.617188 205.34375 226.617188 205.351562 226.613281 C 233.40625 219.691406 255.015625 196.421875 259.503906 167.488281 C 255.566406 182.332031 245.449219 194.660156 232.078125 201.554688 " fill-opacity="1" fill-rule="nonzero"/></g><g clip-path="url(#75cce7c366)"><path fill="#316f87" d="M 183.449219 199.894531 C 182.730469 198.71875 181.484375 197.953125 180.109375 197.84375 L 170.769531 197.109375 C 165.140625 196.667969 160.070312 193.257812 157.535156 188.207031 L 156.429688 186.007812 C 155.644531 184.441406 155.625 182.570312 156.492188 181.050781 C 157.386719 179.480469 159 178.511719 160.789062 178.457031 L 160.953125 178.453125 L 170.339844 178.453125 C 167.277344 173.625 161.761719 170.90625 156.054688 171.441406 L 146.300781 172.351562 C 142.125 172.742188 138.371094 169.863281 137.601562 165.738281 C 137.03125 162.679688 136.730469 159.527344 136.730469 156.304688 C 136.730469 139.960938 144.386719 125.410156 156.300781 116.03125 C 144.496094 123.808594 135.308594 135.234375 130.351562 148.703125 C 134.816406 116.25 162.65625 91.253906 196.335938 91.253906 C 217.1875 91.253906 235.796875 100.832031 248.011719 115.828125 C 235.027344 96.605469 213.0625 83.945312 188.136719 83.878906 C 148.234375 83.777344 115.578125 116.289062 115.519531 156.195312 C 115.5 170.242188 119.480469 183.355469 126.382812 194.464844 C 126.53125 194.699219 126.671875 194.933594 126.820312 195.167969 L 136.488281 193.527344 C 140.808594 192.796875 144.363281 196.972656 142.894531 201.097656 C 142.851562 201.210938 142.828125 201.273438 142.828125 201.273438 C 149.050781 203.539062 148 209.601562 148 209.601562 C 153.496094 212.105469 151.234375 217.28125 151.234375 217.28125 C 153.175781 218.082031 153.859375 219.65625 154.035156 220.167969 C 154.125 220.429688 154.222656 220.6875 154.324219 220.949219 L 158.082031 230.59375 C 158.730469 232.253906 160.714844 233.609375 162.496094 233.609375 C 164.742188 233.609375 166.296875 231.363281 165.503906 229.261719 L 163.746094 224.578125 L 161.398438 218.332031 C 161.234375 217.898438 161.535156 217.417969 162.007812 217.382812 C 162.320312 217.359375 162.601562 217.5625 162.722656 217.851562 L 165.804688 225.277344 L 168.089844 230.769531 C 168.875 232.664062 170.949219 233.75 172.914062 233.175781 C 175.273438 232.484375 176.445312 229.847656 175.378906 227.636719 C 175.378906 227.636719 175.378906 227.632812 175.378906 227.632812 L 169.730469 215.96875 C 169.488281 215.46875 169.820312 214.878906 170.375 214.824219 C 170.695312 214.792969 171 214.960938 171.152344 215.242188 L 178.023438 228.046875 L 178.875 229.636719 C 179.714844 231.199219 181.554688 232.015625 183.242188 231.457031 C 184.554688 231.023438 185.429688 229.925781 185.660156 228.6875 C 185.800781 227.929688 185.703125 227.121094 185.320312 226.375 L 179.941406 215.953125 C 179.707031 215.496094 179.878906 214.90625 180.355469 214.710938 C 180.777344 214.535156 181.25 214.714844 181.457031 215.105469 L 187.535156 226.585938 C 188.027344 227.511719 188.757812 228.230469 189.613281 228.707031 C 191.039062 229.496094 192.804688 229.609375 194.382812 228.863281 C 194.683594 228.722656 194.964844 228.550781 195.222656 228.359375 C 197.378906 226.796875 198.054688 223.785156 196.609375 221.417969 L 183.449219 199.894531 " fill-opacity="1" fill-rule="nonzero"/></g><path fill="#22c55e" d="M 130.914062 204.25 L 138.519531 202.988281 C 140.800781 202.609375 142.34375 200.453125 141.964844 198.167969 C 141.585938 195.886719 139.429688 194.34375 137.148438 194.722656 L 129.542969 195.984375 C 127.261719 196.363281 125.71875 198.519531 126.097656 200.800781 C 126.476562 203.082031 128.632812 204.625 130.914062 204.25 " fill-opacity="1" fill-rule="nonzero"/><path fill="#22c55e" d="M 145.84375 206.414062 C 145.464844 204.132812 143.308594 202.589844 141.027344 202.96875 L 130.648438 204.953125 C 128.367188 205.332031 126.824219 207.488281 127.203125 209.769531 C 127.578125 212.050781 129.738281 213.59375 132.019531 213.214844 L 142.398438 211.230469 C 144.679688 210.851562 146.222656 208.695312 145.84375 206.414062 " fill-opacity="1" fill-rule="nonzero"/><path fill="#22c55e" d="M 149.347656 215.035156 C 148.96875 212.753906 146.8125 211.210938 144.53125 211.589844 L 136.925781 212.851562 C 134.644531 213.230469 133.101562 215.386719 133.480469 217.667969 C 133.859375 219.949219 136.015625 221.492188 138.296875 221.113281 L 145.898438 219.851562 C 148.183594 219.472656 149.726562 217.316406 149.347656 215.035156 " fill-opacity="1" fill-rule="nonzero"/><path fill="#22c55e" d="M 149.808594 219.671875 L 143.566406 220.667969 C 141.285156 221.042969 139.742188 223.203125 140.121094 225.484375 C 140.496094 227.765625 142.65625 229.308594 144.9375 228.929688 L 151.179688 227.9375 C 153.464844 227.558594 155.007812 225.398438 154.628906 223.117188 C 154.25 220.835938 152.09375 219.292969 149.808594 219.671875 " fill-opacity="1" fill-rule="nonzero"/><g fill="#ffffff" fill-opacity="1"><g transform="translate(87.562568, 273.975303)"><g><path d="M 18.296875 -2.265625 C 18.484375 -2.265625 18.628906 -2.21875 18.734375 -2.125 C 18.847656 -2.03125 18.90625 -1.90625 18.90625 -1.75 L 18.90625 -0.4375 C 18.90625 -0.300781 18.859375 -0.191406 18.765625 -0.109375 C 18.679688 -0.0351562 18.566406 0 18.421875 0 L 3.5 0 C 3.195312 0 3.046875 -0.148438 3.046875 -0.453125 L 3.046875 -21.125 C 3.046875 -21.414062 3.195312 -21.5625 3.5 -21.5625 L 18.109375 -21.5625 C 18.429688 -21.5625 18.59375 -21.421875 18.59375 -21.140625 L 18.59375 -19.765625 C 18.59375 -19.460938 18.429688 -19.3125 18.109375 -19.3125 L 5.421875 -19.3125 L 5.421875 -10.390625 L 15.765625 -10.390625 C 16.140625 -10.390625 16.328125 -10.234375 16.328125 -9.921875 L 16.328125 -8.625 C 16.328125 -8.332031 16.140625 -8.1875 15.765625 -8.1875 L 5.421875 -8.1875 L 5.421875 -2.265625 Z M 18.296875 -2.265625 "/></g></g></g><g fill="#ffffff" fill-opacity="1"><g transform="translate(110.842477, 273.975303)"><g><path d="M 20.046875 -0.515625 C 20.117188 -0.359375 20.125 -0.222656 20.0625 -0.109375 C 20 -0.00390625 19.875 0.046875 19.6875 0.046875 L 18.015625 0.046875 C 17.910156 0.046875 17.816406 0.0078125 17.734375 -0.0625 C 17.660156 -0.144531 17.597656 -0.238281 17.546875 -0.34375 L 16.40625 -3.09375 L 4.40625 -3.09375 L 3.265625 -0.359375 C 3.222656 -0.253906 3.15625 -0.160156 3.0625 -0.078125 C 2.976562 -0.00390625 2.882812 0.03125 2.78125 0.03125 L 1.140625 0.03125 C 0.953125 0.03125 0.828125 -0.015625 0.765625 -0.109375 C 0.703125 -0.210938 0.703125 -0.351562 0.765625 -0.53125 L 9.828125 -21.359375 C 9.941406 -21.617188 10.113281 -21.75 10.34375 -21.75 L 10.46875 -21.75 C 10.570312 -21.75 10.671875 -21.710938 10.765625 -21.640625 C 10.867188 -21.566406 10.941406 -21.46875 10.984375 -21.34375 Z M 5.265625 -5.1875 L 15.53125 -5.1875 L 10.40625 -17.515625 Z M 5.265625 -5.1875 "/></g></g></g><g fill="#ffffff" fill-opacity="1"><g transform="translate(134.562473, 273.975303)"><g><path d="M 9.359375 0.296875 C 8.617188 0.296875 7.875 0.207031 7.125 0.03125 C 6.375 -0.144531 5.65625 -0.394531 4.96875 -0.71875 C 4.289062 -1.050781 3.671875 -1.4375 3.109375 -1.875 C 2.554688 -2.320312 2.101562 -2.804688 1.75 -3.328125 C 1.664062 -3.429688 1.625 -3.546875 1.625 -3.671875 C 1.632812 -3.804688 1.703125 -3.921875 1.828125 -4.015625 L 2.84375 -5.03125 C 3.039062 -5.1875 3.265625 -5.128906 3.515625 -4.859375 C 3.953125 -4.316406 4.488281 -3.828125 5.125 -3.390625 C 5.757812 -2.953125 6.4375 -2.609375 7.15625 -2.359375 C 7.875 -2.109375 8.570312 -1.984375 9.25 -1.984375 C 10.863281 -1.984375 12.113281 -2.328125 13 -3.015625 C 13.882812 -3.710938 14.328125 -4.660156 14.328125 -5.859375 C 14.328125 -6.390625 14.1875 -6.859375 13.90625 -7.265625 C 13.632812 -7.679688 13.253906 -8.050781 12.765625 -8.375 C 12.273438 -8.707031 11.703125 -9.015625 11.046875 -9.296875 C 10.390625 -9.578125 9.6875 -9.863281 8.9375 -10.15625 C 8.007812 -10.488281 7.15625 -10.835938 6.375 -11.203125 C 5.59375 -11.566406 4.914062 -11.984375 4.34375 -12.453125 C 3.769531 -12.921875 3.320312 -13.46875 3 -14.09375 C 2.675781 -14.726562 2.515625 -15.46875 2.515625 -16.3125 C 2.515625 -17.40625 2.789062 -18.367188 3.34375 -19.203125 C 3.90625 -20.035156 4.695312 -20.679688 5.71875 -21.140625 C 6.738281 -21.609375 7.953125 -21.84375 9.359375 -21.84375 C 10.148438 -21.84375 10.921875 -21.742188 11.671875 -21.546875 C 12.429688 -21.347656 13.117188 -21.066406 13.734375 -20.703125 C 14.359375 -20.347656 14.863281 -19.929688 15.25 -19.453125 C 15.46875 -19.179688 15.484375 -18.941406 15.296875 -18.734375 L 14.46875 -17.796875 C 14.34375 -17.640625 14.207031 -17.570312 14.0625 -17.59375 C 13.925781 -17.625 13.773438 -17.695312 13.609375 -17.8125 C 13.285156 -18.195312 12.882812 -18.519531 12.40625 -18.78125 C 11.925781 -19.039062 11.414062 -19.238281 10.875 -19.375 C 10.332031 -19.507812 9.789062 -19.578125 9.25 -19.578125 C 8.332031 -19.578125 7.546875 -19.4375 6.890625 -19.15625 C 6.234375 -18.875 5.726562 -18.484375 5.375 -17.984375 C 5.03125 -17.492188 4.859375 -16.925781 4.859375 -16.28125 C 4.859375 -15.738281 5 -15.253906 5.28125 -14.828125 C 5.5625 -14.410156 5.945312 -14.035156 6.4375 -13.703125 C 6.925781 -13.367188 7.488281 -13.066406 8.125 -12.796875 C 8.757812 -12.523438 9.421875 -12.265625 10.109375 -12.015625 C 10.953125 -11.722656 11.769531 -11.398438 12.5625 -11.046875 C 13.363281 -10.691406 14.082031 -10.28125 14.71875 -9.8125 C 15.351562 -9.351562 15.859375 -8.804688 16.234375 -8.171875 C 16.609375 -7.535156 16.796875 -6.78125 16.796875 -5.90625 C 16.796875 -4.632812 16.488281 -3.535156 15.875 -2.609375 C 15.257812 -1.679688 14.394531 -0.960938 13.28125 -0.453125 C 12.164062 0.046875 10.859375 0.296875 9.359375 0.296875 Z M 9.359375 0.296875 "/></g></g></g><g fill="#ffffff" fill-opacity="1"><g transform="translate(155.854865, 273.975303)"><g><path d="M 16.96875 -21.609375 C 17.125 -21.609375 17.226562 -21.554688 17.28125 -21.453125 C 17.34375 -21.359375 17.328125 -21.21875 17.234375 -21.03125 L 10.125 -8.828125 L 10.125 -0.4375 C 10.125 -0.125 9.988281 0.03125 9.71875 0.03125 L 8.203125 0.03125 C 7.890625 0.03125 7.734375 -0.125 7.734375 -0.4375 L 7.734375 -8.875 L 0.640625 -21.046875 C 0.566406 -21.222656 0.5625 -21.359375 0.625 -21.453125 C 0.6875 -21.554688 0.796875 -21.609375 0.953125 -21.609375 L 2.71875 -21.609375 C 2.914062 -21.609375 3.082031 -21.488281 3.21875 -21.25 L 8.9375 -11.265625 L 14.671875 -21.25 C 14.796875 -21.488281 14.960938 -21.609375 15.171875 -21.609375 Z M 16.96875 -21.609375 "/></g></g></g><g fill="#ffffff" fill-opacity="1"><g transform="translate(176.650372, 273.975303)"><g><path d="M 8.828125 -21.5625 C 10.179688 -21.5625 11.421875 -21.351562 12.546875 -20.9375 C 13.679688 -20.53125 14.664062 -19.953125 15.5 -19.203125 C 16.34375 -18.453125 16.992188 -17.5625 17.453125 -16.53125 C 17.910156 -15.507812 18.140625 -14.394531 18.140625 -13.1875 C 18.140625 -11.957031 17.910156 -10.832031 17.453125 -9.8125 C 16.992188 -8.800781 16.34375 -7.925781 15.5 -7.1875 C 14.664062 -6.445312 13.679688 -5.875 12.546875 -5.46875 C 11.421875 -5.070312 10.179688 -4.875 8.828125 -4.875 L 5.421875 -4.875 L 5.421875 -0.421875 C 5.421875 -0.296875 5.378906 -0.1875 5.296875 -0.09375 C 5.222656 -0.0078125 5.117188 0.03125 4.984375 0.03125 L 3.5 0.03125 C 3.363281 0.03125 3.253906 -0.0078125 3.171875 -0.09375 C 3.085938 -0.1875 3.046875 -0.296875 3.046875 -0.421875 L 3.046875 -21.125 C 3.046875 -21.257812 3.085938 -21.363281 3.171875 -21.4375 C 3.265625 -21.519531 3.375 -21.5625 3.5 -21.5625 L 4.28125 -21.5625 C 4.457031 -21.5625 4.613281 -21.5625 4.75 -21.5625 C 4.894531 -21.5625 5 -21.5625 5.0625 -21.5625 Z M 8.671875 -6.984375 C 9.703125 -6.984375 10.648438 -7.128906 11.515625 -7.421875 C 12.390625 -7.722656 13.140625 -8.148438 13.765625 -8.703125 C 14.398438 -9.253906 14.894531 -9.910156 15.25 -10.671875 C 15.601562 -11.429688 15.78125 -12.269531 15.78125 -13.1875 C 15.78125 -14.09375 15.601562 -14.925781 15.25 -15.6875 C 14.894531 -16.457031 14.398438 -17.125 13.765625 -17.6875 C 13.140625 -18.25 12.390625 -18.679688 11.515625 -18.984375 C 10.648438 -19.296875 9.703125 -19.453125 8.671875 -19.453125 L 5.421875 -19.453125 L 5.421875 -6.984375 Z M 8.671875 -6.984375 "/></g></g></g><g fill="#ffffff" fill-opacity="1"><g transform="translate(199.149459, 273.975303)"><g><path d="M 16.171875 -2.109375 C 16.410156 -2.109375 16.53125 -1.988281 16.53125 -1.75 L 16.53125 -0.375 C 16.53125 -0.125 16.40625 0 16.15625 0 L 3.421875 0 C 3.171875 0 3.046875 -0.125 3.046875 -0.375 L 3.046875 -21.25 C 3.046875 -21.488281 3.171875 -21.609375 3.421875 -21.609375 L 5.0625 -21.609375 C 5.300781 -21.609375 5.421875 -21.488281 5.421875 -21.25 L 5.421875 -2.109375 Z M 16.171875 -2.109375 "/></g></g></g><g fill="#ffffff" fill-opacity="1"><g transform="translate(219.007988, 273.975303)"><g><path d="M 20.046875 -0.515625 C 20.117188 -0.359375 20.125 -0.222656 20.0625 -0.109375 C 20 -0.00390625 19.875 0.046875 19.6875 0.046875 L 18.015625 0.046875 C 17.910156 0.046875 17.816406 0.0078125 17.734375 -0.0625 C 17.660156 -0.144531 17.597656 -0.238281 17.546875 -0.34375 L 16.40625 -3.09375 L 4.40625 -3.09375 L 3.265625 -0.359375 C 3.222656 -0.253906 3.15625 -0.160156 3.0625 -0.078125 C 2.976562 -0.00390625 2.882812 0.03125 2.78125 0.03125 L 1.140625 0.03125 C 0.953125 0.03125 0.828125 -0.015625 0.765625 -0.109375 C 0.703125 -0.210938 0.703125 -0.351562 0.765625 -0.53125 L 9.828125 -21.359375 C 9.941406 -21.617188 10.113281 -21.75 10.34375 -21.75 L 10.46875 -21.75 C 10.570312 -21.75 10.671875 -21.710938 10.765625 -21.640625 C 10.867188 -21.566406 10.941406 -21.46875 10.984375 -21.34375 Z M 5.265625 -5.1875 L 15.53125 -5.1875 L 10.40625 -17.515625 Z M 5.265625 -5.1875 "/></g></g></g><g fill="#ffffff" fill-opacity="1"><g transform="translate(242.727977, 273.975303)"><g><path d="M 18.09375 -4.03125 C 18.207031 -4.125 18.328125 -4.171875 18.453125 -4.171875 C 18.585938 -4.171875 18.691406 -4.125 18.765625 -4.03125 L 19.65625 -2.6875 C 19.707031 -2.601562 19.710938 -2.5 19.671875 -2.375 C 19.640625 -2.257812 19.5625 -2.160156 19.4375 -2.078125 C 18.84375 -1.578125 18.175781 -1.144531 17.4375 -0.78125 C 16.707031 -0.425781 15.941406 -0.160156 15.140625 0.015625 C 14.335938 0.203125 13.546875 0.296875 12.765625 0.296875 C 11.515625 0.296875 10.328125 0.113281 9.203125 -0.25 C 8.078125 -0.625 7.046875 -1.144531 6.109375 -1.8125 C 5.171875 -2.476562 4.359375 -3.269531 3.671875 -4.1875 C 2.984375 -5.113281 2.453125 -6.128906 2.078125 -7.234375 C 1.703125 -8.347656 1.515625 -9.523438 1.515625 -10.765625 C 1.515625 -12.003906 1.703125 -13.175781 2.078125 -14.28125 C 2.453125 -15.394531 2.984375 -16.414062 3.671875 -17.34375 C 4.359375 -18.269531 5.171875 -19.066406 6.109375 -19.734375 C 7.046875 -20.410156 8.078125 -20.929688 9.203125 -21.296875 C 10.328125 -21.660156 11.515625 -21.84375 12.765625 -21.84375 C 13.535156 -21.84375 14.316406 -21.753906 15.109375 -21.578125 C 15.910156 -21.398438 16.6875 -21.132812 17.4375 -20.78125 C 18.195312 -20.4375 18.882812 -20.003906 19.5 -19.484375 C 19.65625 -19.359375 19.734375 -19.238281 19.734375 -19.125 C 19.742188 -19.007812 19.722656 -18.914062 19.671875 -18.84375 L 18.78125 -17.5 C 18.738281 -17.4375 18.65625 -17.390625 18.53125 -17.359375 C 18.40625 -17.335938 18.265625 -17.382812 18.109375 -17.5 C 17.347656 -18.175781 16.503906 -18.675781 15.578125 -19 C 14.648438 -19.320312 13.710938 -19.484375 12.765625 -19.484375 C 11.773438 -19.484375 10.835938 -19.335938 9.953125 -19.046875 C 9.066406 -18.753906 8.253906 -18.34375 7.515625 -17.8125 C 6.773438 -17.28125 6.132812 -16.648438 5.59375 -15.921875 C 5.050781 -15.203125 4.628906 -14.40625 4.328125 -13.53125 C 4.035156 -12.65625 3.890625 -11.734375 3.890625 -10.765625 C 3.890625 -9.785156 4.035156 -8.859375 4.328125 -7.984375 C 4.628906 -7.117188 5.050781 -6.328125 5.59375 -5.609375 C 6.144531 -4.890625 6.785156 -4.265625 7.515625 -3.734375 C 8.253906 -3.203125 9.066406 -2.789062 9.953125 -2.5 C 10.847656 -2.21875 11.785156 -2.078125 12.765625 -2.078125 C 13.671875 -2.078125 14.597656 -2.238281 15.546875 -2.5625 C 16.492188 -2.894531 17.34375 -3.382812 18.09375 -4.03125 Z M 18.09375 -4.03125 "/></g></g></g><g fill="#ffffff" fill-opacity="1"><g transform="translate(267.044234, 273.975303)"><g><path d="M 18.296875 -2.265625 C 18.484375 -2.265625 18.628906 -2.21875 18.734375 -2.125 C 18.847656 -2.03125 18.90625 -1.90625 18.90625 -1.75 L 18.90625 -0.4375 C 18.90625 -0.300781 18.859375 -0.191406 18.765625 -0.109375 C 18.679688 -0.0351562 18.566406 0 18.421875 0 L 3.5 0 C 3.195312 0 3.046875 -0.148438 3.046875 -0.453125 L 3.046875 -21.125 C 3.046875 -21.414062 3.195312 -21.5625 3.5 -21.5625 L 18.109375 -21.5625 C 18.429688 -21.5625 18.59375 -21.421875 18.59375 -21.140625 L 18.59375 -19.765625 C 18.59375 -19.460938 18.429688 -19.3125 18.109375 -19.3125 L 5.421875 -19.3125 L 5.421875 -10.390625 L 15.765625 -10.390625 C 16.140625 -10.390625 16.328125 -10.234375 16.328125 -9.921875 L 16.328125 -8.625 C 16.328125 -8.332031 16.140625 -8.1875 15.765625 -8.1875 L 5.421875 -8.1875 L 5.421875 -2.265625 Z M 18.296875 -2.265625 "/></g></g></g><g fill="#ffffff" fill-opacity="1"><g transform="translate(116.729933, 289.439097)"><g><path d="M 4.625 -0.609375 C 4.6875 -0.609375 4.71875 -0.570312 4.71875 -0.5 L 4.71875 -0.109375 C 4.71875 -0.0351562 4.6875 0 4.625 0 L 0.984375 0 C 0.910156 0 0.875 -0.0351562 0.875 -0.109375 L 0.875 -6.078125 C 0.875 -6.140625 0.910156 -6.171875 0.984375 -6.171875 L 1.453125 -6.171875 C 1.515625 -6.171875 1.546875 -6.140625 1.546875 -6.078125 L 1.546875 -0.609375 Z M 4.625 -0.609375 "/></g></g></g><g fill="#ffffff" fill-opacity="1"><g transform="translate(128.220222, 289.439097)"><g><path d="M 0.4375 -3.0625 C 0.4375 -3.425781 0.488281 -3.765625 0.59375 -4.078125 C 0.695312 -4.398438 0.84375 -4.691406 1.03125 -4.953125 C 1.226562 -5.222656 1.457031 -5.453125 1.71875 -5.640625 C 1.988281 -5.835938 2.28125 -5.988281 2.59375 -6.09375 C 2.914062 -6.195312 3.253906 -6.25 3.609375 -6.25 C 3.960938 -6.25 4.300781 -6.195312 4.625 -6.09375 C 4.945312 -5.988281 5.238281 -5.835938 5.5 -5.640625 C 5.757812 -5.453125 5.988281 -5.222656 6.1875 -4.953125 C 6.382812 -4.691406 6.535156 -4.398438 6.640625 -4.078125 C 6.742188 -3.765625 6.796875 -3.425781 6.796875 -3.0625 C 6.796875 -2.707031 6.742188 -2.367188 6.640625 -2.046875 C 6.535156 -1.734375 6.382812 -1.445312 6.1875 -1.1875 C 5.988281 -0.925781 5.757812 -0.703125 5.5 -0.515625 C 5.238281 -0.328125 4.945312 -0.179688 4.625 -0.078125 C 4.300781 0.0234375 3.960938 0.078125 3.609375 0.078125 C 3.253906 0.078125 2.914062 0.0234375 2.59375 -0.078125 C 2.28125 -0.179688 1.988281 -0.328125 1.71875 -0.515625 C 1.457031 -0.703125 1.226562 -0.925781 1.03125 -1.1875 C 0.84375 -1.445312 0.695312 -1.734375 0.59375 -2.046875 C 0.488281 -2.367188 0.4375 -2.707031 0.4375 -3.0625 Z M 1.109375 -3.0625 C 1.109375 -2.789062 1.148438 -2.53125 1.234375 -2.28125 C 1.316406 -2.03125 1.429688 -1.800781 1.578125 -1.59375 C 1.734375 -1.382812 1.914062 -1.207031 2.125 -1.0625 C 2.332031 -0.914062 2.5625 -0.800781 2.8125 -0.71875 C 3.0625 -0.632812 3.328125 -0.59375 3.609375 -0.59375 C 3.890625 -0.59375 4.15625 -0.632812 4.40625 -0.71875 C 4.664062 -0.800781 4.894531 -0.914062 5.09375 -1.0625 C 5.300781 -1.207031 5.484375 -1.382812 5.640625 -1.59375 C 5.796875 -1.800781 5.910156 -2.03125 5.984375 -2.28125 C 6.066406 -2.53125 6.109375 -2.789062 6.109375 -3.0625 C 6.109375 -3.34375 6.066406 -3.609375 5.984375 -3.859375 C 5.910156 -4.109375 5.796875 -4.335938 5.640625 -4.546875 C 5.484375 -4.753906 5.300781 -4.9375 5.09375 -5.09375 C 4.894531 -5.25 4.664062 -5.363281 4.40625 -5.4375 C 4.15625 -5.519531 3.890625 -5.5625 3.609375 -5.5625 C 3.328125 -5.5625 3.0625 -5.519531 2.8125 -5.4375 C 2.5625 -5.363281 2.332031 -5.25 2.125 -5.09375 C 1.914062 -4.9375 1.734375 -4.753906 1.578125 -4.546875 C 1.429688 -4.335938 1.316406 -4.109375 1.234375 -3.859375 C 1.148438 -3.609375 1.109375 -3.34375 1.109375 -3.0625 Z M 1.109375 -3.0625 "/></g></g></g><g fill="#ffffff" fill-opacity="1"><g transform="translate(142.091814, 289.439097)"><g><path d="M 5.171875 -1.15625 C 5.203125 -1.175781 5.234375 -1.1875 5.265625 -1.1875 C 5.304688 -1.1875 5.335938 -1.175781 5.359375 -1.15625 L 5.625 -0.765625 C 5.632812 -0.742188 5.632812 -0.710938 5.625 -0.671875 C 5.613281 -0.640625 5.59375 -0.613281 5.5625 -0.59375 C 5.382812 -0.445312 5.191406 -0.320312 4.984375 -0.21875 C 4.773438 -0.125 4.554688 -0.0507812 4.328125 0 C 4.097656 0.0507812 3.875 0.078125 3.65625 0.078125 C 3.289062 0.078125 2.945312 0.0234375 2.625 -0.078125 C 2.300781 -0.179688 2.003906 -0.328125 1.734375 -0.515625 C 1.472656 -0.703125 1.242188 -0.925781 1.046875 -1.1875 C 0.847656 -1.457031 0.695312 -1.75 0.59375 -2.0625 C 0.488281 -2.382812 0.4375 -2.722656 0.4375 -3.078125 C 0.4375 -3.429688 0.488281 -3.765625 0.59375 -4.078125 C 0.695312 -4.398438 0.847656 -4.691406 1.046875 -4.953125 C 1.242188 -5.222656 1.472656 -5.453125 1.734375 -5.640625 C 2.003906 -5.835938 2.300781 -5.988281 2.625 -6.09375 C 2.945312 -6.195312 3.289062 -6.25 3.65625 -6.25 C 3.875 -6.25 4.09375 -6.222656 4.3125 -6.171875 C 4.539062 -6.117188 4.765625 -6.039062 4.984375 -5.9375 C 5.203125 -5.84375 5.398438 -5.71875 5.578125 -5.5625 C 5.617188 -5.53125 5.640625 -5.5 5.640625 -5.46875 C 5.640625 -5.4375 5.632812 -5.410156 5.625 -5.390625 L 5.375 -5 C 5.351562 -4.976562 5.328125 -4.960938 5.296875 -4.953125 C 5.265625 -4.953125 5.222656 -4.96875 5.171875 -5 C 4.953125 -5.195312 4.710938 -5.335938 4.453125 -5.421875 C 4.191406 -5.515625 3.925781 -5.5625 3.65625 -5.5625 C 3.375 -5.5625 3.101562 -5.519531 2.84375 -5.4375 C 2.59375 -5.363281 2.359375 -5.25 2.140625 -5.09375 C 1.929688 -4.9375 1.75 -4.753906 1.59375 -4.546875 C 1.445312 -4.335938 1.328125 -4.109375 1.234375 -3.859375 C 1.148438 -3.617188 1.109375 -3.359375 1.109375 -3.078125 C 1.109375 -2.796875 1.148438 -2.53125 1.234375 -2.28125 C 1.328125 -2.03125 1.445312 -1.800781 1.59375 -1.59375 C 1.75 -1.394531 1.929688 -1.21875 2.140625 -1.0625 C 2.359375 -0.914062 2.59375 -0.800781 2.84375 -0.71875 C 3.101562 -0.632812 3.375 -0.59375 3.65625 -0.59375 C 3.90625 -0.59375 4.164062 -0.640625 4.4375 -0.734375 C 4.707031 -0.828125 4.953125 -0.96875 5.171875 -1.15625 Z M 5.171875 -1.15625 "/></g></g></g><g fill="#ffffff" fill-opacity="1"><g transform="translate(154.855919, 289.439097)"><g><path d="M 5.734375 -0.140625 C 5.753906 -0.0976562 5.753906 -0.0625 5.734375 -0.03125 C 5.710938 0 5.675781 0.015625 5.625 0.015625 L 5.15625 0.015625 C 5.125 0.015625 5.09375 0.00390625 5.0625 -0.015625 C 5.039062 -0.0351562 5.023438 -0.0625 5.015625 -0.09375 L 4.6875 -0.890625 L 1.265625 -0.890625 L 0.9375 -0.09375 C 0.925781 -0.0703125 0.90625 -0.046875 0.875 -0.015625 C 0.851562 0.00390625 0.828125 0.015625 0.796875 0.015625 L 0.328125 0.015625 C 0.273438 0.015625 0.238281 0 0.21875 -0.03125 C 0.195312 -0.0625 0.195312 -0.101562 0.21875 -0.15625 L 2.8125 -6.109375 C 2.84375 -6.179688 2.890625 -6.21875 2.953125 -6.21875 L 2.984375 -6.21875 C 3.015625 -6.21875 3.046875 -6.207031 3.078125 -6.1875 C 3.109375 -6.164062 3.128906 -6.132812 3.140625 -6.09375 Z M 1.5 -1.484375 L 4.4375 -1.484375 L 2.96875 -5.015625 Z M 1.5 -1.484375 "/></g></g></g><g fill="#ffffff" fill-opacity="1"><g transform="translate(167.449638, 289.439097)"><g><path d="M 4.625 -0.609375 C 4.6875 -0.609375 4.71875 -0.570312 4.71875 -0.5 L 4.71875 -0.109375 C 4.71875 -0.0351562 4.6875 0 4.625 0 L 0.984375 0 C 0.910156 0 0.875 -0.0351562 0.875 -0.109375 L 0.875 -6.078125 C 0.875 -6.140625 0.910156 -6.171875 0.984375 -6.171875 L 1.453125 -6.171875 C 1.515625 -6.171875 1.546875 -6.140625 1.546875 -6.078125 L 1.546875 -0.609375 Z M 4.625 -0.609375 "/></g></g></g><g fill="#ffffff" fill-opacity="1"><g transform="translate(178.939926, 289.439097)"><g/></g></g><g fill="#ffffff" fill-opacity="1"><g transform="translate(188.008345, 289.439097)"><g><path d="M 7.46875 -0.140625 C 7.46875 -0.0351562 7.425781 0.015625 7.34375 0.015625 L 6.90625 0.015625 C 6.832031 0.015625 6.789062 -0.03125 6.78125 -0.125 L 6.40625 -4.34375 L 4.15625 -0.046875 C 4.132812 -0.00390625 4.113281 0.0234375 4.09375 0.046875 C 4.070312 0.0664062 4.046875 0.078125 4.015625 0.078125 C 3.984375 0.078125 3.957031 0.0664062 3.9375 0.046875 C 3.914062 0.0234375 3.894531 -0.00390625 3.875 -0.046875 L 1.625 -4.34375 L 1.265625 -0.125 C 1.242188 -0.03125 1.195312 0.015625 1.125 0.015625 L 0.6875 0.015625 C 0.601562 0.015625 0.566406 -0.0351562 0.578125 -0.140625 L 1.125 -6.140625 C 1.125 -6.210938 1.160156 -6.25 1.234375 -6.25 L 1.25 -6.25 C 1.28125 -6.25 1.300781 -6.238281 1.3125 -6.21875 C 1.332031 -6.207031 1.351562 -6.1875 1.375 -6.15625 L 4.015625 -1.109375 L 6.671875 -6.15625 C 6.679688 -6.1875 6.691406 -6.207031 6.703125 -6.21875 C 6.722656 -6.238281 6.75 -6.25 6.78125 -6.25 L 6.796875 -6.25 C 6.867188 -6.25 6.90625 -6.210938 6.90625 -6.140625 Z M 7.46875 -0.140625 "/></g></g></g><g fill="#ffffff" fill-opacity="1"><g transform="translate(202.683169, 289.439097)"><g><path d="M 5.734375 -0.140625 C 5.753906 -0.0976562 5.753906 -0.0625 5.734375 -0.03125 C 5.710938 0 5.675781 0.015625 5.625 0.015625 L 5.15625 0.015625 C 5.125 0.015625 5.09375 0.00390625 5.0625 -0.015625 C 5.039062 -0.0351562 5.023438 -0.0625 5.015625 -0.09375 L 4.6875 -0.890625 L 1.265625 -0.890625 L 0.9375 -0.09375 C 0.925781 -0.0703125 0.90625 -0.046875 0.875 -0.015625 C 0.851562 0.00390625 0.828125 0.015625 0.796875 0.015625 L 0.328125 0.015625 C 0.273438 0.015625 0.238281 0 0.21875 -0.03125 C 0.195312 -0.0625 0.195312 -0.101562 0.21875 -0.15625 L 2.8125 -6.109375 C 2.84375 -6.179688 2.890625 -6.21875 2.953125 -6.21875 L 2.984375 -6.21875 C 3.015625 -6.21875 3.046875 -6.207031 3.078125 -6.1875 C 3.109375 -6.164062 3.128906 -6.132812 3.140625 -6.09375 Z M 1.5 -1.484375 L 4.4375 -1.484375 L 2.96875 -5.015625 Z M 1.5 -1.484375 "/></g></g></g><g fill="#ffffff" fill-opacity="1"><g transform="translate(215.276894, 289.439097)"><g><path d="M 4.40625 -1.890625 L 5.265625 -0.140625 C 5.285156 -0.0976562 5.285156 -0.0625 5.265625 -0.03125 C 5.253906 0 5.222656 0.015625 5.171875 0.015625 L 4.6875 0.015625 C 4.65625 0.015625 4.625 0.00390625 4.59375 -0.015625 C 4.570312 -0.0351562 4.554688 -0.0625 4.546875 -0.09375 L 3.796875 -1.65625 C 3.578125 -1.601562 3.351562 -1.578125 3.125 -1.578125 L 1.546875 -1.578125 L 1.546875 -0.125 C 1.546875 -0.03125 1.503906 0.015625 1.421875 0.015625 L 1 0.015625 C 0.914062 0.015625 0.875 -0.03125 0.875 -0.125 L 0.875 -6.046875 C 0.875 -6.078125 0.882812 -6.101562 0.90625 -6.125 C 0.925781 -6.15625 0.957031 -6.171875 1 -6.171875 L 1.109375 -6.171875 C 1.171875 -6.171875 1.234375 -6.171875 1.296875 -6.171875 C 1.367188 -6.171875 1.421875 -6.171875 1.453125 -6.171875 L 3.125 -6.171875 C 3.46875 -6.171875 3.785156 -6.113281 4.078125 -6 C 4.367188 -5.882812 4.617188 -5.722656 4.828125 -5.515625 C 5.046875 -5.304688 5.210938 -5.0625 5.328125 -4.78125 C 5.453125 -4.5 5.515625 -4.191406 5.515625 -3.859375 C 5.515625 -3.566406 5.46875 -3.296875 5.375 -3.046875 C 5.28125 -2.796875 5.148438 -2.570312 4.984375 -2.375 C 4.816406 -2.1875 4.625 -2.023438 4.40625 -1.890625 Z M 3.078125 -2.140625 C 3.335938 -2.140625 3.570312 -2.179688 3.78125 -2.265625 C 4 -2.359375 4.1875 -2.476562 4.34375 -2.625 C 4.5 -2.78125 4.617188 -2.960938 4.703125 -3.171875 C 4.785156 -3.378906 4.828125 -3.609375 4.828125 -3.859375 C 4.828125 -4.109375 4.78125 -4.332031 4.6875 -4.53125 C 4.601562 -4.738281 4.484375 -4.921875 4.328125 -5.078125 C 4.171875 -5.234375 3.984375 -5.351562 3.765625 -5.4375 C 3.554688 -5.519531 3.328125 -5.5625 3.078125 -5.5625 L 1.546875 -5.5625 L 1.546875 -2.140625 Z M 3.078125 -2.140625 "/></g></g></g><g fill="#ffffff" fill-opacity="1"><g transform="translate(228.024775, 289.439097)"><g><path d="M 5.9375 -0.15625 C 5.957031 -0.113281 5.957031 -0.0703125 5.9375 -0.03125 C 5.925781 0 5.894531 0.015625 5.84375 0.015625 L 5.3125 0.015625 C 5.289062 0.015625 5.269531 0.0078125 5.25 0 C 5.226562 -0.0195312 5.207031 -0.046875 5.1875 -0.078125 L 2.953125 -3.84375 L 1.546875 -2.546875 L 1.546875 -0.09375 C 1.546875 -0.0195312 1.515625 0.015625 1.453125 0.015625 L 0.984375 0.015625 C 0.910156 0.015625 0.875 -0.0195312 0.875 -0.09375 L 0.875 -6.078125 C 0.875 -6.140625 0.910156 -6.171875 0.984375 -6.171875 L 1.453125 -6.171875 C 1.515625 -6.171875 1.546875 -6.140625 1.546875 -6.078125 L 1.546875 -3.40625 L 4.46875 -6.078125 C 4.5 -6.109375 4.53125 -6.128906 4.5625 -6.140625 C 4.59375 -6.160156 4.625 -6.171875 4.65625 -6.171875 L 5.203125 -6.171875 C 5.253906 -6.171875 5.285156 -6.148438 5.296875 -6.109375 C 5.304688 -6.066406 5.296875 -6.023438 5.265625 -5.984375 L 3.453125 -4.3125 Z M 5.9375 -0.15625 "/></g></g></g><g fill="#ffffff" fill-opacity="1"><g transform="translate(240.857847, 289.439097)"><g><path d="M 5.234375 -0.65625 C 5.285156 -0.65625 5.328125 -0.640625 5.359375 -0.609375 C 5.390625 -0.578125 5.40625 -0.539062 5.40625 -0.5 L 5.40625 -0.125 C 5.40625 -0.0820312 5.390625 -0.0507812 5.359375 -0.03125 C 5.335938 -0.0078125 5.304688 0 5.265625 0 L 1 0 C 0.914062 0 0.875 -0.0390625 0.875 -0.125 L 0.875 -6.046875 C 0.875 -6.128906 0.914062 -6.171875 1 -6.171875 L 5.171875 -6.171875 C 5.265625 -6.171875 5.3125 -6.128906 5.3125 -6.046875 L 5.3125 -5.65625 C 5.3125 -5.5625 5.265625 -5.515625 5.171875 -5.515625 L 1.546875 -5.515625 L 1.546875 -2.96875 L 4.5 -2.96875 C 4.613281 -2.96875 4.671875 -2.925781 4.671875 -2.84375 L 4.671875 -2.46875 C 4.671875 -2.382812 4.613281 -2.34375 4.5 -2.34375 L 1.546875 -2.34375 L 1.546875 -0.65625 Z M 5.234375 -0.65625 "/></g></g></g><g fill="#ffffff" fill-opacity="1"><g transform="translate(253.325813, 289.439097)"><g><path d="M 0.265625 -5.6875 L 0.265625 -6.046875 C 0.265625 -6.128906 0.304688 -6.171875 0.390625 -6.171875 L 4.546875 -6.171875 C 4.617188 -6.171875 4.65625 -6.128906 4.65625 -6.046875 L 4.65625 -5.6875 C 4.65625 -5.601562 4.617188 -5.5625 4.546875 -5.5625 L 2.796875 -5.5625 L 2.796875 -0.125 C 2.796875 -0.03125 2.753906 0.015625 2.671875 0.015625 L 2.25 0.015625 C 2.164062 0.015625 2.125 -0.03125 2.125 -0.125 L 2.125 -5.5625 L 0.390625 -5.5625 C 0.304688 -5.5625 0.265625 -5.601562 0.265625 -5.6875 Z M 0.265625 -5.6875 "/></g></g></g></svg>