<?xml version="1.0" encoding="utf-8"?>
<!-- Generated by Mocodo 4.3.2 -->
<svg width="957" height="676" viewBox="0 0 957 676" xmlns="http://www.w3.org/2000/svg">
<rect x="0" y="0" width="957" height="676" fill="#f7f7f7" stroke="none" stroke-width="0"/>

<!-- Association CONTENIR2 -->
<g>
	<line x1="161" y1="194" x2="305" y2="51" stroke="#d6604d" stroke-width="2"/>
	<line x1="161" y1="51" x2="305" y2="51" stroke="#d6604d" stroke-width="2"/>
	<g>
		<path d="M331 26 a14 14 90 0 1 14 14 V51 h-80 V40 a14 14 90 0 1 14 -14" fill="#f4a582" stroke="#f4a582" stroke-width="0"/>
		<path d="M345 51 v11 a14 14 90 0 1 -14 14 H279 a14 14 90 0 1 -14 -14 V51 H80" fill="#fddbc7" stroke="#fddbc7" stroke-width="0"/>
		<rect x="265" y="26" width="80" height="50" fill="none" rx="14" stroke="#d6604d" stroke-width="2"/>
		<line x1="265" y1="51" x2="345" y2="51" stroke="#d6604d" stroke-width="1"/>
		<text x="273" y="43.75" fill="#000000" font-family="Verdana" font-size="12">CONTENIR</text>
	</g>
	<text x="206" y="164.24" fill="#2166ac" font-family="Verdana" font-size="12">0,N</text>
	<text x="200" y="68" fill="#2166ac" font-family="Verdana" font-size="12">1,1</text>
</g>

<!-- Association APPARAIT_DANS -->
<g>
	<line x1="161" y1="194" x2="436" y2="51" stroke="#d6604d" stroke-width="2"/>
	<line x1="591" y1="51" x2="436" y2="51" stroke="#d6604d" stroke-width="2"/>
	<g>
		<path d="M481 26 a14 14 90 0 1 14 14 V51 h-118 V40 a14 14 90 0 1 14 -14" fill="#f4a582" stroke="#f4a582" stroke-width="0"/>
		<path d="M495 51 v11 a14 14 90 0 1 -14 14 H391 a14 14 90 0 1 -14 -14 V51 H118" fill="#fddbc7" stroke="#fddbc7" stroke-width="0"/>
		<rect x="377" y="26" width="118" height="50" fill="none" rx="14" stroke="#d6604d" stroke-width="2"/>
		<line x1="377" y1="51" x2="495" y2="51" stroke="#d6604d" stroke-width="1"/>
		<text x="385" y="43.75" fill="#000000" font-family="Verdana" font-size="12">APPARAIT_DANS</text>
	</g>
	<text x="206" y="186.14" fill="#2166ac" font-family="Verdana" font-size="12">0,N</text>
	<text x="501" y="68" fill="#2166ac" font-family="Verdana" font-size="12">1,1</text>
</g>

<!-- Association CONTENIR -->
<g>
	<line x1="161" y1="397" x2="49" y2="194" stroke="#d6604d" stroke-width="2"/>
	<line x1="161" y1="51" x2="49" y2="194" stroke="#d6604d" stroke-width="2"/>
	<g>
		<path d="M75 169 a14 14 90 0 1 14 14 V194 h-80 V183 a14 14 90 0 1 14 -14" fill="#f4a582" stroke="#f4a582" stroke-width="0"/>
		<path d="M89 194 v11 a14 14 90 0 1 -14 14 H23 a14 14 90 0 1 -14 -14 V194 H80" fill="#fddbc7" stroke="#fddbc7" stroke-width="0"/>
		<rect x="9" y="169" width="80" height="50" fill="none" rx="14" stroke="#d6604d" stroke-width="2"/>
		<line x1="9" y1="194" x2="89" y2="194" stroke="#d6604d" stroke-width="1"/>
		<text x="17" y="186.75" fill="#000000" font-family="Verdana" font-size="12">CONTENIR</text>
	</g>
	<text x="80" y="311.83" fill="#2166ac" font-family="Verdana" font-size="12">0,N</text>
	<text x="127.24" y="110" fill="#2166ac" font-family="Verdana" font-size="12">1,1</text>
</g>

<!-- Association RECEVOIR -->
<g>
	<line x1="161" y1="194" x2="305" y2="194" stroke="#d6604d" stroke-width="2"/>
	<line x1="436" y1="194" x2="305" y2="194" stroke="#d6604d" stroke-width="2"/>
	<g>
		<path d="M330 169 a14 14 90 0 1 14 14 V194 h-78 V183 a14 14 90 0 1 14 -14" fill="#f4a582" stroke="#f4a582" stroke-width="0"/>
		<path d="M344 194 v11 a14 14 90 0 1 -14 14 H280 a14 14 90 0 1 -14 -14 V194 H78" fill="#fddbc7" stroke="#fddbc7" stroke-width="0"/>
		<rect x="266" y="169" width="78" height="50" fill="none" rx="14" stroke="#d6604d" stroke-width="2"/>
		<line x1="266" y1="194" x2="344" y2="194" stroke="#d6604d" stroke-width="1"/>
		<text x="273" y="186.75" fill="#000000" font-family="Verdana" font-size="12">RECEVOIR</text>
	</g>
	<text x="206" y="211" fill="#2166ac" font-family="Verdana" font-size="12">0,N</text>
	<text x="374" y="211" fill="#2166ac" font-family="Verdana" font-size="12">1,1</text>
</g>

<!-- Association ASSOCIER -->
<g>
	<line x1="436" y1="194" x2="591" y2="194" stroke="#d6604d" stroke-width="2"/>
	<line x1="715" y1="194" x2="591" y2="194" stroke="#d6604d" stroke-width="2"/>
	<g>
		<path d="M616 169 a14 14 90 0 1 14 14 V194 h-78 V183 a14 14 90 0 1 14 -14" fill="#f4a582" stroke="#f4a582" stroke-width="0"/>
		<path d="M630 194 v11 a14 14 90 0 1 -14 14 H566 a14 14 90 0 1 -14 -14 V194 H78" fill="#fddbc7" stroke="#fddbc7" stroke-width="0"/>
		<rect x="552" y="169" width="78" height="50" fill="none" rx="14" stroke="#d6604d" stroke-width="2"/>
		<line x1="552" y1="194" x2="630" y2="194" stroke="#d6604d" stroke-width="1"/>
		<text x="559" y="186.75" fill="#000000" font-family="Verdana" font-size="12">ASSOCIER</text>
	</g>
	<text x="477" y="211" fill="#2166ac" font-family="Verdana" font-size="12">0,1</text>
	<text x="636" y="211" fill="#2166ac" font-family="Verdana" font-size="12">1,1</text>
</g>

<!-- Association COMPREND -->
<g>
	<line x1="591" y1="397" x2="842" y2="194" stroke="#d6604d" stroke-width="2"/>
	<line x1="591" y1="51" x2="842" y2="194" stroke="#d6604d" stroke-width="2"/>
	<g>
		<path d="M870 169 a14 14 90 0 1 14 14 V194 h-84 V183 a14 14 90 0 1 14 -14" fill="#f4a582" stroke="#f4a582" stroke-width="0"/>
		<path d="M884 194 v11 a14 14 90 0 1 -14 14 H814 a14 14 90 0 1 -14 -14 V194 H84" fill="#fddbc7" stroke="#fddbc7" stroke-width="0"/>
		<rect x="800" y="169" width="84" height="50" fill="none" rx="14" stroke="#d6604d" stroke-width="2"/>
		<line x1="800" y1="194" x2="884" y2="194" stroke="#d6604d" stroke-width="1"/>
		<text x="807" y="186.75" fill="#000000" font-family="Verdana" font-size="12">COMPREND</text>
	</g>
	<text x="621.95" y="347" fill="#2166ac" font-family="Verdana" font-size="12">1,N</text>
	<text x="613.31" y="93" fill="#2166ac" font-family="Verdana" font-size="12">1,1</text>
</g>

<!-- Association APPROVISIONER -->
<g>
	<line x1="161" y1="397" x2="305" y2="397" stroke="#d6604d" stroke-width="2"/>
	<line x1="161" y1="194" x2="305" y2="397" stroke="#d6604d" stroke-width="2"/>
	<g>
		<path d="M349 372 a14 14 90 0 1 14 14 V397 h-116 V386 a14 14 90 0 1 14 -14" fill="#f4a582" stroke="#f4a582" stroke-width="0"/>
		<path d="M363 397 v11 a14 14 90 0 1 -14 14 H261 a14 14 90 0 1 -14 -14 V397 H116" fill="#fddbc7" stroke="#fddbc7" stroke-width="0"/>
		<rect x="247" y="372" width="116" height="50" fill="none" rx="14" stroke="#d6604d" stroke-width="2"/>
		<line x1="247" y1="397" x2="363" y2="397" stroke="#d6604d" stroke-width="1"/>
		<text x="254" y="389.75" fill="#000000" font-family="Verdana" font-size="12">APPROVISIONER</text>
	</g>
	<text x="220" y="389" fill="#2166ac" font-family="Verdana" font-size="12">0,N</text>
	<text x="206" y="247.78" fill="#2166ac" font-family="Verdana" font-size="12">1,1</text>
</g>

<!-- Association LAISSER -->
<g>
	<line x1="436" y1="194" x2="436" y2="397" stroke="#d6604d" stroke-width="2"/>
	<line x1="436" y1="524" x2="436" y2="397" stroke="#d6604d" stroke-width="2"/>
	<g>
		<path d="M456 372 a14 14 90 0 1 14 14 V397 h-68 V386 a14 14 90 0 1 14 -14" fill="#f4a582" stroke="#f4a582" stroke-width="0"/>
		<path d="M470 397 v11 a14 14 90 0 1 -14 14 H416 a14 14 90 0 1 -14 -14 V397 H68" fill="#fddbc7" stroke="#fddbc7" stroke-width="0"/>
		<rect x="402" y="372" width="68" height="50" fill="none" rx="14" stroke="#d6604d" stroke-width="2"/>
		<line x1="402" y1="397" x2="470" y2="397" stroke="#d6604d" stroke-width="1"/>
		<text x="410" y="389.75" fill="#000000" font-family="Verdana" font-size="12">LAISSER</text>
	</g>
	<text x="441" y="262" fill="#2166ac" font-family="Verdana" font-size="12">1,1</text>
	<text x="441" y="465" fill="#2166ac" font-family="Verdana" font-size="12">0,N</text>
</g>

<!-- Association GERER -->
<g>
	<line x1="436" y1="524" x2="305" y2="524" stroke="#d6604d" stroke-width="2"/>
	<line x1="161" y1="397" x2="305" y2="524" stroke="#d6604d" stroke-width="2"/>
	<g>
		<path d="M319 499 a14 14 90 0 1 14 14 V524 h-56 V513 a14 14 90 0 1 14 -14" fill="#f4a582" stroke="#f4a582" stroke-width="0"/>
		<path d="M333 524 v11 a14 14 90 0 1 -14 14 H291 a14 14 90 0 1 -14 -14 V524 H56" fill="#fddbc7" stroke="#fddbc7" stroke-width="0"/>
		<rect x="277" y="499" width="56" height="50" fill="none" rx="14" stroke="#d6604d" stroke-width="2"/>
		<line x1="277" y1="524" x2="333" y2="524" stroke="#d6604d" stroke-width="1"/>
		<text x="284" y="516.75" fill="#000000" font-family="Verdana" font-size="12">GERER</text>
	</g>
	<text x="360" y="541" fill="#2166ac" font-family="Verdana" font-size="12">0,N</text>
	<text x="220" y="443.07" fill="#2166ac" font-family="Verdana" font-size="12">1,1</text>
</g>

<!-- Association PASSER -->
<g>
	<line x1="436" y1="524" x2="591" y2="524" stroke="#d6604d" stroke-width="2"/>
	<line x1="591" y1="397" x2="591" y2="524" stroke="#d6604d" stroke-width="2"/>
	<g>
		<path d="M609 499 a14 14 90 0 1 14 14 V524 h-64 V513 a14 14 90 0 1 14 -14" fill="#f4a582" stroke="#f4a582" stroke-width="0"/>
		<path d="M623 524 v11 a14 14 90 0 1 -14 14 H573 a14 14 90 0 1 -14 -14 V524 H64" fill="#fddbc7" stroke="#fddbc7" stroke-width="0"/>
		<rect x="559" y="499" width="64" height="50" fill="none" rx="14" stroke="#d6604d" stroke-width="2"/>
		<line x1="559" y1="524" x2="623" y2="524" stroke="#d6604d" stroke-width="1"/>
		<text x="567" y="516.75" fill="#000000" font-family="Verdana" font-size="12">PASSER</text>
	</g>
	<text x="490" y="516" fill="#2166ac" font-family="Verdana" font-size="12">0,N</text>
	<text x="565" y="456" fill="#2166ac" font-family="Verdana" font-size="12">1,1</text>
</g>

<!-- Association LIER -->
<g>
	<line x1="591" y1="397" x2="715" y2="524" stroke="#d6604d" stroke-width="2"/>
	<line x1="715" y1="625" x2="715" y2="524" stroke="#d6604d" stroke-width="2"/>
	<g>
		<path d="M723 499 a14 14 90 0 1 14 14 V524 h-44 V513 a14 14 90 0 1 14 -14" fill="#f4a582" stroke="#f4a582" stroke-width="0"/>
		<path d="M737 524 v11 a14 14 90 0 1 -14 14 H707 a14 14 90 0 1 -14 -14 V524 H44" fill="#fddbc7" stroke="#fddbc7" stroke-width="0"/>
		<rect x="693" y="499" width="44" height="50" fill="none" rx="14" stroke="#d6604d" stroke-width="2"/>
		<line x1="693" y1="524" x2="737" y2="524" stroke="#d6604d" stroke-width="1"/>
		<text x="701" y="516.75" fill="#000000" font-family="Verdana" font-size="12">LIER</text>
	</g>
	<text x="612.96" y="456" fill="#2166ac" font-family="Verdana" font-size="12">0,1</text>
	<text x="720" y="575" fill="#2166ac" font-family="Verdana" font-size="12">1,1</text>
</g>

<!-- Association ATTRIBUER -->
<g>
	<line x1="436" y1="524" x2="436" y2="625" stroke="#d6604d" stroke-width="2"/>
	<line x1="305" y1="625" x2="436" y2="625" stroke="#d6604d" stroke-width="2"/>
	<g>
		<path d="M464 600 a14 14 90 0 1 14 14 V625 h-84 V614 a14 14 90 0 1 14 -14" fill="#f4a582" stroke="#f4a582" stroke-width="0"/>
		<path d="M478 625 v11 a14 14 90 0 1 -14 14 H408 a14 14 90 0 1 -14 -14 V625 H84" fill="#fddbc7" stroke="#fddbc7" stroke-width="0"/>
		<rect x="394" y="600" width="84" height="50" fill="none" rx="14" stroke="#d6604d" stroke-width="2"/>
		<line x1="394" y1="625" x2="478" y2="625" stroke="#d6604d" stroke-width="1"/>
		<text x="401" y="617.75" fill="#000000" font-family="Verdana" font-size="12">ATTRIBUER</text>
	</g>
	<text x="410" y="592" fill="#2166ac" font-family="Verdana" font-size="12">1,1</text>
	<text x="337" y="642" fill="#2166ac" font-family="Verdana" font-size="12">0,N</text>
</g>

<!-- Association ENVOYER -->
<g>
	<line x1="436" y1="524" x2="591" y2="625" stroke="#d6604d" stroke-width="2"/>
	<line x1="715" y1="625" x2="591" y2="625" stroke="#d6604d" stroke-width="2"/>
	<g>
		<path d="M614 600 a14 14 90 0 1 14 14 V625 h-74 V614 a14 14 90 0 1 14 -14" fill="#f4a582" stroke="#f4a582" stroke-width="0"/>
		<path d="M628 625 v11 a14 14 90 0 1 -14 14 H568 a14 14 90 0 1 -14 -14 V625 H74" fill="#fddbc7" stroke="#fddbc7" stroke-width="0"/>
		<rect x="554" y="600" width="74" height="50" fill="none" rx="14" stroke="#d6604d" stroke-width="2"/>
		<line x1="554" y1="625" x2="628" y2="625" stroke="#d6604d" stroke-width="1"/>
		<text x="562" y="617.75" fill="#000000" font-family="Verdana" font-size="12">ENVOYER</text>
	</g>
	<text x="490" y="552.94" fill="#2166ac" font-family="Verdana" font-size="12">0,N</text>
	<text x="647" y="642" fill="#2166ac" font-family="Verdana" font-size="12">1,1</text>
</g>

<!-- Entity MEDIA -->
<g>
	<g>
		<rect x="127" y="9" width="68" height="25" fill="#92c5de" stroke="none" stroke-width="0" opacity="1"/>
		<rect x="127" y="34" width="68" height="59" fill="#d1e5f0" stroke="none" stroke-width="0" opacity="1"/>
		<rect x="127" y="9" width="68" height="84" fill="none" stroke="#4393c3" stroke-width="2" opacity="1"/>
		<line x1="127" y1="34" x2="195" y2="34" stroke="#4393c3" stroke-width="1"/>
	</g>
	<text x="141" y="26.75" fill="#000000" font-family="Verdana" font-size="12">MEDIA</text>
	<text x="132" y="51.8" fill="#000000" font-family="Verdana" font-size="12">Id_media</text>
	<line x1="132" y1="54" x2="190" y2="54" stroke="#000000" stroke-width="1"/>
	<text x="132" y="68.8" fill="#000000" font-family="Verdana" font-size="12">URL</text>
	<text x="132" y="85.8" fill="#000000" font-family="Verdana" font-size="12">Type</text>
</g>

<!-- Entity LIGNE_COMMANDE -->
<g>
	<g>
		<rect x="527" y="26" width="128" height="25" fill="#92c5de" stroke="none" stroke-width="0" opacity="1"/>
		<rect x="527" y="51" width="128" height="25" fill="#d1e5f0" stroke="none" stroke-width="0" opacity="1"/>
		<rect x="527" y="26" width="128" height="50" fill="none" stroke="#4393c3" stroke-width="2" opacity="1"/>
		<line x1="527" y1="51" x2="655" y2="51" stroke="#4393c3" stroke-width="1"/>
	</g>
	<text x="532" y="43.75" fill="#000000" font-family="Verdana" font-size="12">LIGNE_COMMANDE</text>
	<text x="532" y="68.8" fill="#000000" font-family="Verdana" font-size="12">Quantité</text>
	<line x1="532" y1="71" x2="585" y2="71" stroke="#000000" stroke-width="1"/>
</g>

<!-- Entity PRODUIT -->
<g>
	<g>
		<rect x="121" y="118" width="80" height="25" fill="#92c5de" stroke="none" stroke-width="0" opacity="1"/>
		<rect x="121" y="143" width="80" height="127" fill="#d1e5f0" stroke="none" stroke-width="0" opacity="1"/>
		<rect x="121" y="118" width="80" height="152" fill="none" stroke="#4393c3" stroke-width="2" opacity="1"/>
		<line x1="121" y1="143" x2="201" y2="143" stroke="#4393c3" stroke-width="1"/>
	</g>
	<text x="133" y="135.75" fill="#000000" font-family="Verdana" font-size="12">PRODUIT</text>
	<text x="126" y="160.8" fill="#000000" font-family="Verdana" font-size="12">Id_produit</text>
	<line x1="126" y1="163" x2="190" y2="163" stroke="#000000" stroke-width="1"/>
	<text x="126" y="177.8" fill="#000000" font-family="Verdana" font-size="12">Nom</text>
	<text x="126" y="194.8" fill="#000000" font-family="Verdana" font-size="12">Description</text>
	<text x="126" y="211.8" fill="#000000" font-family="Verdana" font-size="12">Prix</text>
	<text x="126" y="228.8" fill="#000000" font-family="Verdana" font-size="12">Stock</text>
	<text x="126" y="245.8" fill="#000000" font-family="Verdana" font-size="12">Catégorie</text>
	<text x="126" y="262.8" fill="#000000" font-family="Verdana" font-size="12">Image</text>
</g>

<!-- Entity AVIS -->
<g>
	<g>
		<rect x="400" y="143" width="72" height="25" fill="#92c5de" stroke="none" stroke-width="0" opacity="1"/>
		<rect x="400" y="168" width="72" height="77" fill="#d1e5f0" stroke="none" stroke-width="0" opacity="1"/>
		<rect x="400" y="143" width="72" height="102" fill="none" stroke="#4393c3" stroke-width="2" opacity="1"/>
		<line x1="400" y1="168" x2="472" y2="168" stroke="#4393c3" stroke-width="1"/>
	</g>
	<text x="421" y="160.75" fill="#000000" font-family="Verdana" font-size="12">AVIS</text>
	<text x="405" y="185.8" fill="#000000" font-family="Verdana" font-size="12">Id_avis</text>
	<line x1="405" y1="188" x2="450" y2="188" stroke="#000000" stroke-width="1"/>
	<text x="405" y="202.8" fill="#000000" font-family="Verdana" font-size="12">Texte</text>
	<text x="405" y="219.8" fill="#000000" font-family="Verdana" font-size="12">Étoiles</text>
	<text x="405" y="236.8" fill="#000000" font-family="Verdana" font-size="12">Date_avis</text>
</g>

<!-- Entity REPONSE_AVIS -->
<g>
	<g>
		<rect x="662" y="160" width="106" height="25" fill="#92c5de" stroke="none" stroke-width="0" opacity="1"/>
		<rect x="662" y="185" width="106" height="43" fill="#d1e5f0" stroke="none" stroke-width="0" opacity="1"/>
		<rect x="662" y="160" width="106" height="68" fill="none" stroke="#4393c3" stroke-width="2" opacity="1"/>
		<line x1="662" y1="185" x2="768" y2="185" stroke="#4393c3" stroke-width="1"/>
	</g>
	<text x="667" y="177.75" fill="#000000" font-family="Verdana" font-size="12">REPONSE_AVIS</text>
	<text x="667" y="202.8" fill="#000000" font-family="Verdana" font-size="12">Id_réponse</text>
	<line x1="667" y1="205" x2="736" y2="205" stroke="#000000" stroke-width="1"/>
	<text x="667" y="219.8" fill="#000000" font-family="Verdana" font-size="12">Contenu</text>
</g>

<!-- Entity BOUTIQUE -->
<g>
	<g>
		<rect x="107" y="295" width="108" height="25" fill="#92c5de" stroke="none" stroke-width="0" opacity="1"/>
		<rect x="107" y="320" width="108" height="179" fill="#d1e5f0" stroke="none" stroke-width="0" opacity="1"/>
		<rect x="107" y="295" width="108" height="204" fill="none" stroke="#4393c3" stroke-width="2" opacity="1"/>
		<line x1="107" y1="320" x2="215" y2="320" stroke="#4393c3" stroke-width="1"/>
	</g>
	<text x="128" y="312.75" fill="#000000" font-family="Verdana" font-size="12">BOUTIQUE</text>
	<text x="112" y="337.8" fill="#000000" font-family="Verdana" font-size="12">Id_boutique</text>
	<line x1="112" y1="340" x2="186" y2="340" stroke="#000000" stroke-width="1"/>
	<text x="112" y="354.8" fill="#000000" font-family="Verdana" font-size="12">SIRET</text>
	<text x="112" y="371.8" fill="#000000" font-family="Verdana" font-size="12">Nom_entreprise</text>
	<text x="112" y="388.8" fill="#000000" font-family="Verdana" font-size="12">Téléphone</text>
	<text x="112" y="405.8" fill="#000000" font-family="Verdana" font-size="12">Email</text>
	<text x="112" y="422.8" fill="#000000" font-family="Verdana" font-size="12">Rue</text>
	<text x="112" y="439.8" fill="#000000" font-family="Verdana" font-size="12">Code_postal</text>
	<text x="112" y="456.8" fill="#000000" font-family="Verdana" font-size="12">Ville</text>
	<text x="112" y="473.8" fill="#000000" font-family="Verdana" font-size="12">Pays</text>
	<text x="112" y="490.8" fill="#000000" font-family="Verdana" font-size="12">Image</text>
</g>

<!-- Entity COMMANDE -->
<g>
	<g>
		<rect x="534" y="355" width="114" height="25" fill="#92c5de" stroke="none" stroke-width="0" opacity="1"/>
		<rect x="534" y="380" width="114" height="59" fill="#d1e5f0" stroke="none" stroke-width="0" opacity="1"/>
		<rect x="534" y="355" width="114" height="84" fill="none" stroke="#4393c3" stroke-width="2" opacity="1"/>
		<line x1="534" y1="380" x2="648" y2="380" stroke="#4393c3" stroke-width="1"/>
	</g>
	<text x="555" y="372.75" fill="#000000" font-family="Verdana" font-size="12">COMMANDE</text>
	<text x="539" y="397.8" fill="#000000" font-family="Verdana" font-size="12">Id_commande</text>
	<line x1="539" y1="400" x2="627" y2="400" stroke="#000000" stroke-width="1"/>
	<text x="539" y="414.8" fill="#000000" font-family="Verdana" font-size="12">Date_commande</text>
	<text x="539" y="431.8" fill="#000000" font-family="Verdana" font-size="12">Statut</text>
</g>

<!-- Entity UTILISATEUR -->
<g>
	<g>
		<rect x="387" y="473" width="98" height="25" fill="#92c5de" stroke="none" stroke-width="0" opacity="1"/>
		<rect x="387" y="498" width="98" height="77" fill="#d1e5f0" stroke="none" stroke-width="0" opacity="1"/>
		<rect x="387" y="473" width="98" height="102" fill="none" stroke="#4393c3" stroke-width="2" opacity="1"/>
		<line x1="387" y1="498" x2="485" y2="498" stroke="#4393c3" stroke-width="1"/>
	</g>
	<text x="395" y="490.75" fill="#000000" font-family="Verdana" font-size="12">UTILISATEUR</text>
	<text x="392" y="515.8" fill="#000000" font-family="Verdana" font-size="12">Id_utilisateur</text>
	<line x1="392" y1="518" x2="473" y2="518" stroke="#000000" stroke-width="1"/>
	<text x="392" y="532.8" fill="#000000" font-family="Verdana" font-size="12">Nom</text>
	<text x="392" y="549.8" fill="#000000" font-family="Verdana" font-size="12">Email</text>
	<text x="392" y="566.8" fill="#000000" font-family="Verdana" font-size="12">Mot_de_passe</text>
</g>

<!-- Entity ROLE -->
<g>
	<g>
		<rect x="278" y="591" width="54" height="25" fill="#92c5de" stroke="none" stroke-width="0" opacity="1"/>
		<rect x="278" y="616" width="54" height="43" fill="#d1e5f0" stroke="none" stroke-width="0" opacity="1"/>
		<rect x="278" y="591" width="54" height="68" fill="none" stroke="#4393c3" stroke-width="2" opacity="1"/>
		<line x1="278" y1="616" x2="332" y2="616" stroke="#4393c3" stroke-width="1"/>
	</g>
	<text x="289" y="608.75" fill="#000000" font-family="Verdana" font-size="12">ROLE</text>
	<text x="283" y="633.8" fill="#000000" font-family="Verdana" font-size="12">Id_rôle</text>
	<line x1="283" y1="636" x2="327" y2="636" stroke="#000000" stroke-width="1"/>
	<text x="283" y="650.8" fill="#000000" font-family="Verdana" font-size="12">Nom</text>
</g>

<!-- Entity MESSAGE -->
<g>
	<g>
		<rect x="673" y="583" width="84" height="25" fill="#92c5de" stroke="none" stroke-width="0" opacity="1"/>
		<rect x="673" y="608" width="84" height="59" fill="#d1e5f0" stroke="none" stroke-width="0" opacity="1"/>
		<rect x="673" y="583" width="84" height="84" fill="none" stroke="#4393c3" stroke-width="2" opacity="1"/>
		<line x1="673" y1="608" x2="757" y2="608" stroke="#4393c3" stroke-width="1"/>
	</g>
	<text x="685" y="600.75" fill="#000000" font-family="Verdana" font-size="12">MESSAGE</text>
	<text x="678" y="625.8" fill="#000000" font-family="Verdana" font-size="12">Id_message</text>
	<line x1="678" y1="628" x2="752" y2="628" stroke="#000000" stroke-width="1"/>
	<text x="678" y="642.8" fill="#000000" font-family="Verdana" font-size="12">Contenu</text>
	<text x="678" y="659.8" fill="#000000" font-family="Verdana" font-size="12">Date_envoi</text>
</g>
</svg>